<svg viewBox="0 0 330 200" xmlns="http://www.w3.org/2000/svg"><g><g><g><g><g><line x1="50" y1="178" x2="45" y2="178" style="visibility: inherit;" fill="rgb(0, 0, 0)" stroke="rgb(204, 204, 204)" stroke-width="1px"></line><line x1="50" y1="158.22222222222223" x2="45" y2="158.22222222222223" style="visibility: inherit;" fill="rgb(0, 0, 0)" stroke="rgb(204, 204, 204)" stroke-width="1px"></line><line x1="50" y1="138.44444444444446" x2="45" y2="138.44444444444446" style="visibility: inherit;" fill="rgb(0, 0, 0)" stroke="rgb(204, 204, 204)" stroke-width="1px"></line><line x1="50" y1="118.66666666666666" x2="45" y2="118.66666666666666" style="visibility: inherit;" fill="rgb(0, 0, 0)" stroke="rgb(204, 204, 204)" stroke-width="1px"></line><line x1="50" y1="98.88888888888889" x2="45" y2="98.88888888888889" style="visibility: inherit;" fill="rgb(0, 0, 0)" stroke="rgb(204, 204, 204)" stroke-width="1px"></line><line x1="50" y1="79.1111111111111" x2="45" y2="79.1111111111111" style="visibility: inherit;" fill="rgb(0, 0, 0)" stroke="rgb(204, 204, 204)" stroke-width="1px"></line><line x1="50" y1="59.33333333333334" x2="45" y2="59.33333333333334" style="visibility: inherit;" fill="rgb(0, 0, 0)" stroke="rgb(204, 204, 204)" stroke-width="1px"></line><line x1="50" y1="39.55555555555557" x2="45" y2="39.55555555555557" style="visibility: inherit;" fill="rgb(0, 0, 0)" stroke="rgb(204, 204, 204)" stroke-width="1px"></line><line x1="50" y1="19.7777777777778" x2="45" y2="19.7777777777778" style="visibility: inherit;" fill="rgb(0, 0, 0)" stroke="rgb(204, 204, 204)" stroke-width="1px"></line><line x1="50" y1="0" x2="45" y2="0" style="visibility: inherit;" fill="rgb(0, 0, 0)" stroke="rgb(204, 204, 204)" stroke-width="1px"></line></g><g transform="translate(40, 0)"><text x="0" y="178" dx="0em" dy="0.3em" style="text-anchor: end; visibility: hidden; font-family: &quot;Helvetica Neue&quot;, sans-serif; font-size: 12px; font-weight: 200;" fill="rgb(50, 49, 63)" stroke="none" stroke-width="1px">-0.1</text><text x="0" y="158.22222222222223" dx="0em" dy="0.3em" style="text-anchor: end; visibility: inherit; font-family: &quot;Helvetica Neue&quot;, sans-serif; font-size: 12px; font-weight: 200;" fill="rgb(50, 49, 63)" stroke="none" stroke-width="1px">0</text><text x="0" y="138.44444444444446" dx="0em" dy="0.3em" style="text-anchor: end; visibility: hidden; font-family: &quot;Helvetica Neue&quot;, sans-serif; font-size: 12px; font-weight: 200;" fill="rgb(50, 49, 63)" stroke="none" stroke-width="1px">0.1</text><text x="0" y="118.66666666666666" dx="0em" dy="0.3em" style="text-anchor: end; visibility: inherit; font-family: &quot;Helvetica Neue&quot;, sans-serif; font-size: 12px; font-weight: 200;" fill="rgb(50, 49, 63)" stroke="none" stroke-width="1px">0.2</text><text x="0" y="98.88888888888889" dx="0em" dy="0.3em" style="text-anchor: end; visibility: hidden; font-family: &quot;Helvetica Neue&quot;, sans-serif; font-size: 12px; font-weight: 200;" fill="rgb(50, 49, 63)" stroke="none" stroke-width="1px">0.3</text><text x="0" y="79.1111111111111" dx="0em" dy="0.3em" style="text-anchor: end; visibility: inherit; font-family: &quot;Helvetica Neue&quot;, sans-serif; font-size: 12px; font-weight: 200;" fill="rgb(50, 49, 63)" stroke="none" stroke-width="1px">0.4</text><text x="0" y="59.33333333333334" dx="0em" dy="0.3em" style="text-anchor: end; visibility: hidden; font-family: &quot;Helvetica Neue&quot;, sans-serif; font-size: 12px; font-weight: 200;" fill="rgb(50, 49, 63)" stroke="none" stroke-width="1px">0.5</text><text x="0" y="39.55555555555557" dx="0em" dy="0.3em" style="text-anchor: end; visibility: inherit; font-family: &quot;Helvetica Neue&quot;, sans-serif; font-size: 12px; font-weight: 200;" fill="rgb(50, 49, 63)" stroke="none" stroke-width="1px">0.6</text><text x="0" y="19.7777777777778" dx="0em" dy="0.3em" style="text-anchor: end; visibility: hidden; font-family: &quot;Helvetica Neue&quot;, sans-serif; font-size: 12px; font-weight: 200;" fill="rgb(50, 49, 63)" stroke="none" stroke-width="1px">0.7</text><text x="0" y="0" dx="0em" dy="0.3em" style="text-anchor: end; visibility: hidden; font-family: &quot;Helvetica Neue&quot;, sans-serif; font-size: 12px; font-weight: 200;" fill="rgb(50, 49, 63)" stroke="none" stroke-width="1px">0.8</text></g><line x1="50" y1="0" x2="50" y2="178" fill="rgb(0, 0, 0)" stroke="rgb(204, 204, 204)" stroke-width="1px"></line></g></g><g transform="translate(50, 0)" clip-path="url(#clip_0)"><clipPath id="clip_0"><rect width="280" height="178"></rect></clipPath><g><g><g><line x1="0" y1="0" x2="0" y2="178" fill="rgb(0, 0, 0)" stroke="rgb(60, 60, 60)" stroke-width="1px" opacity="0.25"></line><line x1="23.333333333333332" y1="0" x2="23.333333333333332" y2="178" fill="rgb(0, 0, 0)" stroke="rgb(60, 60, 60)" stroke-width="1px" opacity="0.25"></line><line x1="46.666666666666664" y1="0" x2="46.666666666666664" y2="178" fill="rgb(0, 0, 0)" stroke="rgb(60, 60, 60)" stroke-width="1px" opacity="0.25"></line><line x1="70" y1="0" x2="70" y2="178" fill="rgb(0, 0, 0)" stroke="rgb(60, 60, 60)" stroke-width="1px" opacity="0.25"></line><line x1="93.33333333333333" y1="0" x2="93.33333333333333" y2="178" fill="rgb(0, 0, 0)" stroke="rgb(60, 60, 60)" stroke-width="1px" opacity="0.25"></line><line x1="116.66666666666667" y1="0" x2="116.66666666666667" y2="178" fill="rgb(0, 0, 0)" stroke="rgb(60, 60, 60)" stroke-width="1px" opacity="0.25"></line><line x1="140" y1="0" x2="140" y2="178" fill="rgb(0, 0, 0)" stroke="rgb(60, 60, 60)" stroke-width="1px" opacity="0.25"></line><line x1="163.33333333333334" y1="0" x2="163.33333333333334" y2="178" fill="rgb(0, 0, 0)" stroke="rgb(60, 60, 60)" stroke-width="1px" opacity="0.25"></line><line x1="186.66666666666666" y1="0" x2="186.66666666666666" y2="178" fill="rgb(0, 0, 0)" stroke="rgb(60, 60, 60)" stroke-width="1px" opacity="0.25"></line><line x1="210" y1="0" x2="210" y2="178" fill="rgb(0, 0, 0)" stroke="rgb(60, 60, 60)" stroke-width="1px" opacity="0.25"></line><line x1="233.33333333333334" y1="0" x2="233.33333333333334" y2="178" fill="rgb(0, 0, 0)" stroke="rgb(60, 60, 60)" stroke-width="1px" opacity="0.25"></line><line x1="256.66666666666663" y1="0" x2="256.66666666666663" y2="178" fill="rgb(0, 0, 0)" stroke="rgb(60, 60, 60)" stroke-width="1px" opacity="0.25"></line><line x1="280" y1="0" x2="280" y2="178" fill="rgb(0, 0, 0)" stroke="rgb(60, 60, 60)" stroke-width="1px" opacity="0.25"></line></g><g><line x1="0" y1="178" x2="280" y2="178" fill="rgb(0, 0, 0)" stroke="rgb(60, 60, 60)" stroke-width="1px" opacity="0.25"></line><line x1="0" y1="158.22222222222223" x2="280" y2="158.22222222222223" fill="rgb(0, 0, 0)" stroke="rgb(60, 60, 60)" stroke-width="1px" opacity="0.25"></line><line x1="0" y1="138.44444444444446" x2="280" y2="138.44444444444446" fill="rgb(0, 0, 0)" stroke="rgb(60, 60, 60)" stroke-width="1px" opacity="0.25"></line><line x1="0" y1="118.66666666666666" x2="280" y2="118.66666666666666" fill="rgb(0, 0, 0)" stroke="rgb(60, 60, 60)" stroke-width="1px" opacity="0.25"></line><line x1="0" y1="98.88888888888889" x2="280" y2="98.88888888888889" fill="rgb(0, 0, 0)" stroke="rgb(60, 60, 60)" stroke-width="1px" opacity="0.25"></line><line x1="0" y1="79.1111111111111" x2="280" y2="79.1111111111111" fill="rgb(0, 0, 0)" stroke="rgb(60, 60, 60)" stroke-width="1px" opacity="0.25"></line><line x1="0" y1="59.33333333333334" x2="280" y2="59.33333333333334" fill="rgb(0, 0, 0)" stroke="rgb(60, 60, 60)" stroke-width="1px" opacity="0.25"></line><line x1="0" y1="39.55555555555557" x2="280" y2="39.55555555555557" fill="rgb(0, 0, 0)" stroke="rgb(60, 60, 60)" stroke-width="1px" opacity="0.25"></line><line x1="0" y1="19.7777777777778" x2="280" y2="19.7777777777778" fill="rgb(0, 0, 0)" stroke="rgb(60, 60, 60)" stroke-width="1px" opacity="0.25"></line><line x1="0" y1="0" x2="280" y2="0" fill="rgb(0, 0, 0)" stroke="rgb(60, 60, 60)" stroke-width="1px" opacity="0.25"></line></g></g></g><g><g><line x1="0" y1="158.22222222222223" x2="280" y2="158.22222222222223" fill="rgb(0, 0, 0)" stroke="rgb(153, 153, 153)" stroke-width="1.5px"></line></g></g><g><g><line x1="23.333333333333332" y1="0" x2="23.333333333333332" y2="178" fill="rgb(0, 0, 0)" stroke="rgb(153, 153, 153)" stroke-width="1.5px"></line></g></g><g><g><g><g><g><path stroke="rgb(255, 112, 67)" stroke-width="2px" d="M29.4,-2.7863599891427384L29.866666666666667,1.924190914936844L30.333333333333336,5.377570847487021L30.8,8.823561769795816L31.266666666666666,12.369650455793618L31.73333333333333,15.7607039393136L32.2,19.010093384221534L32.666666666666664,21.834020468377418L33.13333333333333,24.833916619361844L33.6,27.247439776879133L34.06666666666667,29.89331280858866L34.53333333333333,32.409833005933194L35,34.704520998867935L35.46666666666667,36.994628996807364L35.93333333333333,39.210439644780536L36.4,41.10675276505606L36.86666666666666,43.268110116261084L37.333333333333336,45.18781934721346L37.800000000000004,47.12950286753929L38.266666666666666,48.93526755854816L38.733333333333334,50.578115323023994L39.2,52.04904378206763L39.666666666666664,53.642968724182595L40.13333333333333,55.36167815366879L40.599999999999994,56.59087542765842L41.06666666666667,58.05473528719445L41.53333333333334,59.4983016426157L42,60.64049399279361L42.46666666666667,62.016203433911784L42.93333333333333,63.340621187810285L43.4,64.49256293207996L43.86666666666667,65.60534497884774L44.33333333333333,66.71687070759184L44.800000000000004,67.84394137294892L45.266666666666666,68.85677668526606L45.733333333333334,69.90725094658775L46.2,70.93127048004385L46.666666666666664,71.97313958753138L47.13333333333333,72.96849815300975L47.6,73.78668470610408L48.06666666666666,74.7084971375512L48.53333333333333,75.66965827073419L49,76.57751847536474L49.46666666666667,77.45137270236224L49.93333333333334,78.21799543079423L50.4,78.95183802796006L50.86666666666667,79.82627067407576L51.33333333333333,80.6651421049383L51.8,81.28709577348918L52.266666666666666,82.06775349736206L52.733333333333334,82.82273712106756L53.2,83.553211899748L53.66666666666667,84.23664879767449L54.13333333333333,84.90802844420064L54.6,85.55036754673712L55.06666666666666,86.20694677675709L55.53333333333333,86.85463946501156L56,87.49168222850912L56.46666666666667,88.11569402701252L56.93333333333334,88.74746727634445L57.4,89.3596126179322L57.86666666666667,89.96730520442482L58.333333333333336,90.50183529740505L58.8,91.08194118216275L59.266666666666666,91.61078701543128L59.733333333333334,92.19320620829492L60.199999999999996,92.76041911124808L60.66666666666667,93.26783405539932L61.13333333333333,93.74615173292807L61.6,94.16108326630905L62.06666666666667,94.56468781472624L62.53333333333333,95.00116310193849L63,95.54297029255791L63.46666666666666,96.01269959517435L63.93333333333333,96.40946165036861L64.4,96.85372598269316L64.86666666666666,97.29256804371302L65.33333333333333,97.72726707773633L65.8,98.13150542359809L66.26666666666667,98.57889811144685L66.73333333333333,99.0087466289274L67.2,99.42081211004951L67.66666666666667,99.8388334932004L68.13333333333334,100.26571789005496L68.6,100.62544858461342L69.06666666666666,101.0111832671598L69.53333333333333,101.36735839120179L70,101.75270524957703L70.46666666666667,102.12302714576991L70.93333333333334,102.49090930527078L71.4,102.86417790894643L71.86666666666666,103.20546285896667L72.33333333333334,103.57306147671731L72.8,103.92087291954431L73.26666666666667,104.24080743438196L73.73333333333332,104.58210704126485L74.2,104.90227793042922L74.66666666666667,105.20672196022709L75.13333333333333,105.55116012357264L75.60000000000001,105.87929274235556L76.06666666666666,106.19631333835724L76.53333333333333,106.50575293076177L77,106.81622256823981L77.46666666666667,107.1026405861063L77.93333333333334,107.40109552678567L78.4,107.66896274043975L78.86666666666667,107.94055524913627L79.33333333333333,108.2105702939245L79.8,108.49044691333867L80.26666666666667,108.72482254262202L80.73333333333333,108.98563795474944L81.19999999999999,109.26135246785721L81.66666666666667,109.52467056422894L82.13333333333334,109.79593697507828L82.6,110.08795790035119L83.06666666666668,110.33845743834144L83.53333333333333,110.59431063879708L84,110.87183245962329L84.46666666666667,111.1109605096616L84.93333333333334,111.37040341318084L85.39999999999999,111.60873650998904L85.86666666666666,111.83284097394497L86.33333333333334,112.05058038662838L86.8,112.26315333347512L87.26666666666667,112.50449019276628L87.73333333333333,112.73962283967808L88.2,112.94772693922391L88.66666666666666,113.17297974132224L89.13333333333334,113.3851506966187L89.60000000000001,113.60964815012089L90.06666666666666,113.8414112242026L90.53333333333333,114.06097685991966L91,114.28180113305137L91.46666666666667,114.50297813709716L91.93333333333332,114.71406046541608L92.4,114.90223180121703L92.86666666666666,115.11182038157364L93.33333333333333,115.3125647467158L93.80000000000001,115.5262785127317L94.26666666666667,115.74045889176935L94.73333333333333,115.94014641830609L95.2,116.13540444302193L95.66666666666667,116.32512301594454L96.13333333333333,116.50836590233214L96.6,116.68670974341207L97.06666666666666,116.87282414380095L97.53333333333333,117.0302428546294L98,117.22334459406576L98.46666666666667,117.41153768515196L98.93333333333334,117.57617138026028L99.39999999999999,117.76304450310894L99.86666666666667,117.95255845771317L100.33333333333333,118.12084445627687L100.8,118.2952719311638L101.26666666666668,118.4639091996408L101.73333333333333,118.63556162634173L102.2,118.81334359540693L102.66666666666666,118.97856821317353L103.13333333333334,119.12640900924441L103.6,119.30240314238156L104.06666666666666,119.46212777734988L104.53333333333333,119.61743276804393L105,119.78147820494607L105.46666666666667,119.93837989948818L105.93333333333334,120.10444467117027L106.4,120.23985080889798L106.86666666666666,120.38075944259737L107.33333333333334,120.52956367243554L107.8,120.69983891070726L108.26666666666667,120.84164435085307L108.73333333333332,121.0068580752019L109.2,121.14391792713457L109.66666666666667,121.31252749456044L110.13333333333333,121.47257822658057L110.60000000000001,121.62478666409928L111.06666666666666,121.76821807473226L111.53333333333333,121.89561752470877L112,122.03642379409862L112.46666666666667,122.17491732783797L112.93333333333334,122.31258337613234L113.4,122.43969716587517L113.86666666666667,122.56354624497655L114.33333333333333,122.70165780204056L114.8,122.81974323924516L115.26666666666667,122.95003732519903L115.73333333333333,123.07206686577628L116.19999999999999,123.19854840988239L116.66666666666667,123.32576091862026L117.13333333333334,123.45070079637966L117.6,123.58096389614151L118.06666666666668,123.71020674533924L118.53333333333333,123.81700332719511L119,123.9361212328825L119.46666666666667,124.06231054027532L119.93333333333334,124.18844318820878L120.39999999999999,124.29503728715626L120.86666666666666,124.4109062631764L121.33333333333334,124.53188616811252L121.8,124.64741456149471L122.26666666666667,124.76876193476005L122.73333333333333,124.8957315409694L123.2,125.00638090870189L123.66666666666666,125.10930504883322L124.13333333333334,125.22115093096635L124.60000000000001,125.33000058868674L125.06666666666666,125.42997175850363L125.53333333333333,125.5350353091005L126,125.6422592677607L126.46666666666667,125.73752163235838L126.93333333333332,125.85470420116019L127.4,125.97072157560049L127.86666666666666,126.07996962313075L128.33333333333331,126.16992470143839L128.8,126.27126038274245L129.26666666666668,126.38743037725565L129.73333333333332,126.50364246603486L130.20000000000002,126.59348747022635L130.66666666666666,126.69223907519543L131.13333333333333,126.79325514007564L131.6,126.8905913278121L132.06666666666666,126.98632978432413L132.53333333333333,127.09122809473526L133,127.18800091724367L133.46666666666667,127.2895217721387L133.93333333333334,127.39903835756587L134.4,127.49128744585042L134.86666666666667,127.58956493558625L135.33333333333334,127.6843619567914L135.79999999999998,127.7826802599009L136.26666666666668,127.88659086045892L136.73333333333335,127.97993885152462L137.2,128.07042786878782L137.66666666666666,128.17287194332897L138.13333333333333,128.26839136394747L138.6,128.33841857287194L139.06666666666666,128.42970011468327L139.53333333333333,128.5170001333493L140,128.61500054814792L140.46666666666667,128.71116024076846L140.93333333333334,128.79039760304613L141.4,128.87820455838482L141.86666666666667,128.96719562534722L142.33333333333331,129.0485762001873L142.8,129.14093678969573L143.26666666666668,129.22035456731425L143.73333333333332,129.30926714483908L144.20000000000002,129.38923358865395L144.66666666666669,129.4741091734909L145.13333333333333,129.55460358819394L145.6,129.6312241936362L146.06666666666666,129.71215543901002L146.53333333333333,129.78607230665992L147,129.8689567487989L147.46666666666664,129.95301578031834L147.93333333333334,130.01978229254593L148.4,130.10004421865682L148.86666666666665,130.18643102741225L149.33333333333334,130.25694835083223L149.8,130.32798811809624L150.26666666666665,130.4081596952524L150.73333333333332,130.48540114427962L151.20000000000002,130.55680815688598L151.66666666666666,130.63195989037297L152.13333333333333,130.7143460383199L152.60000000000002,130.79033544681062L153.06666666666666,130.86583640125548L153.53333333333333,130.94674664279353L154,131.02496282064578L154.46666666666667,131.09897536204096L154.93333333333334,131.17568598887655L155.4,131.2527770080459L155.86666666666667,131.3287562692422L156.33333333333334,131.40772910031168L156.8,131.4814495944632L157.26666666666665,131.55230510535335L157.73333333333335,131.61847865415632L158.2,131.69339466697L158.66666666666666,131.76463024314182L159.13333333333333,131.8308816497539L159.6,131.90801390775863L160.06666666666666,131.9807378074904L160.53333333333333,132.04990274538756L161,132.11211118560175L161.46666666666667,132.18012391048387L161.93333333333334,132.25603821784125L162.39999999999998,132.31278965593148L162.86666666666667,132.3814004268904L163.33333333333334,132.45702649574378L163.79999999999998,132.52475045764777L164.26666666666668,132.58705434992095L164.73333333333335,132.65430763186296L165.2,132.72404240980188L165.66666666666666,132.7925362804993L166.13333333333335,132.85938538420598L166.6,132.92916291291527L167.06666666666666,132.9884880128513L167.53333333333336,133.05080993811916L168,133.112001278252L168.46666666666667,133.17162773218732L168.93333333333334,133.24087111602154L169.4,133.30744507417816L169.86666666666667,133.3742916146499L170.33333333333331,133.43908749209228L170.79999999999998,133.50392030679427L171.26666666666668,133.5701146983502L171.73333333333332,133.623161153602L172.2,133.69120184877113L172.66666666666669,133.75328079201324L173.13333333333333,133.81368201483144L173.6,133.86864923535802L174.06666666666666,133.9311568406528L174.53333333333333,133.9915380025621L175,134.05036795360834L175.46666666666667,134.11341830429149L175.93333333333334,134.1750883791471L176.4,134.24005764744777L176.86666666666667,134.3022246274703L177.33333333333331,134.36276341974818L177.8,134.41791492497438L178.26666666666668,134.47800083587111L178.73333333333332,134.53753887727484L179.20000000000002,134.59778603153563L179.66666666666669,134.65737080758376L180.13333333333333,134.7097227322339L180.6,134.76763158999168L181.06666666666666,134.81913214267053L181.53333333333333,134.8796853561827L182,134.94003306359042L182.46666666666664,134.99188706106472L182.93333333333334,135.04674244894412L183.4,135.09957308062437L183.86666666666665,135.14741313486445L184.33333333333334,135.20081468840993L184.8,135.2526302021161L185.26666666666665,135.31350998777503L185.73333333333332,135.36915374373314L186.20000000000002,135.4237179871821L186.66666666666666,135.46838952220168L187.13333333333333,135.52575280230758L187.60000000000002,135.5830430382235L188.06666666666666,135.6303299059099L188.53333333333333,135.68105468611256L189,135.7315100145325L189.46666666666667,135.78536222016248L189.93333333333334,135.83199725595216L190.4,135.87934400192552L190.86666666666667,135.93431866929296L191.33333333333334,135.98320490058924L191.8,136.03496319554083L192.26666666666665,136.0842077875942L192.73333333333335,136.1392121753576L193.2,136.18671273419443L193.66666666666666,136.23767626254917L194.13333333333333,136.28083529995433L194.6,136.32891650070698L195.06666666666666,136.37570133699194L195.53333333333333,136.42701465311794L196,136.4797610909026L196.46666666666667,136.52988372704777L196.93333333333334,136.57979382526182L197.39999999999998,136.62930678714392L197.86666666666667,136.6769770548101L198.33333333333334,136.72500314201403L198.79999999999998,136.774544345373L199.26666666666668,136.82139815151606L199.73333333333335,136.8694383791384L200.2,136.90294941910682L200.66666666666666,136.94555585751976L201.13333333333335,136.99180483131838L201.6,137.03205279973827L202.06666666666666,137.08039331149757L202.53333333333336,137.12644202318697L203,137.17197811366051L203.46666666666667,137.21701314731922L203.93333333333334,137.26132052832585L204.4,137.30761280693207L204.86666666666667,137.35236942713297L205.33333333333331,137.398951719527L205.79999999999998,137.4365265987517L206.26666666666668,137.4737788849693L206.73333333333332,137.51442816196032L207.2,137.55556967761555L207.66666666666669,137.5944877768199L208.13333333333333,137.6401602992072L208.6,137.68370716005L209.06666666666666,137.72476748336476L209.53333333333333,137.77035106854683L210,137.81568578046654L210.46666666666667,137.8599816410013L210.93333333333334,137.89739768816332L211.4,137.9375891989655L211.86666666666667,137.9815278177548L212.33333333333331,138.02067915613637L212.8,138.05940100811952L213.26666666666668,138.1030670357427L213.73333333333332,138.1413625573512L214.20000000000002,138.18114032760684L214.66666666666669,138.21955834534938L215.13333333333333,138.25736559690165L215.6,138.30313202079L216.06666666666666,138.34454114360557L216.53333333333333,138.38291543484317L217,138.424173606045L217.46666666666664,138.46519103727127L217.93333333333334,138.50410326458478L218.4,138.54300944945007L218.86666666666665,138.58107797329376L219.33333333333334,138.62306659854792L219.8,138.66179164233853L220.26666666666665,138.70690572065013L220.73333333333332,138.74210611582328L221.20000000000002,138.78022145420627L221.66666666666666,138.81415235046887L222.13333333333333,138.85291262943642L222.60000000000002,138.89046018745856L223.06666666666666,138.9267404005961L223.53333333333333,138.9661414528843L224,139.00379287216845L224.46666666666667,139.0402262451566L224.93333333333334,139.07739263065594L225.4,139.1198278916635L225.86666666666667,139.1617214664207L226.33333333333334,139.20049717539595L226.8,139.2361276033406L227.26666666666665,139.2757214657779L227.73333333333335,139.3124358247389L228.2,139.35221590796667L228.66666666666666,139.38840269451842L229.13333333333333,139.42609029512593L229.6,139.46115028919246L230.06666666666666,139.50077139769388L230.53333333333333,139.53215950859996L231,139.56947412206097L231.46666666666667,139.60124715866843L231.93333333333334,139.6380672700849L232.39999999999998,139.67154926367527L232.86666666666667,139.70705155871246L233.33333333333334,139.74311004044642L233.79999999999998,139.77749132522518L234.26666666666668,139.81259646558516L234.73333333333335,139.8422124250845L235.2,139.87677478911306L235.66666666666666,139.91127127744025L236.13333333333335,139.94562786861496L236.6,139.9784742762046L237.06666666666666,140.0069653002129L237.53333333333336,140.04138451273514L238,140.07809515407607L238.46666666666667,140.11333844136337L238.93333333333334,140.14369420779852L239.4,140.17432830532664L239.86666666666667,140.21128694731178L240.33333333333331,140.2501345167883L240.79999999999998,140.2838665618235L241.26666666666668,140.31332422203735L241.73333333333332,140.34728139702122L242.2,140.38385755342296L242.66666666666669,140.416285284372L243.13333333333333,140.44979899944855L243.6,140.48148039759263L244.06666666666666,140.51318244526254L244.53333333333333,140.54838596950972L245,140.58153157442945L245.46666666666667,140.6166007869243L245.93333333333334,140.64785073304313L246.4,140.67256920328845L246.86666666666667,140.7045608817174L247.33333333333331,140.7375205228433L247.8,140.7691998431397L248.26666666666668,140.8013472809342L248.73333333333332,140.83455458373635L249.20000000000002,140.86422387167778L249.66666666666669,140.8839418189038L250.13333333333333,140.90850487751834L250.6,140.9417471529667L251.06666666666666,140.97317722224238L251.53333333333333,141.00625870823112L252,141.03647428313064L252.46666666666664,141.067354008029L252.93333333333334,141.09997998089636L253.4,141.12937144712953L253.86666666666665,141.16157030888883L254.33333333333334,141.1908915587822L254.8,141.22136516394545L255.26666666666665,141.2540392731455L255.73333333333332,141.27783643865166L256.2,141.2989732758876" style="fill: none;" fill="none"></path></g></g></g></g><g opacity="0.2"><g><g><g><path stroke="rgb(255, 112, 67)" stroke-width="2px" d="M25.666666666666664,-7.21367621421814L26.133333333333333,6.637910630967895L26.6,23.9459842046102L27.066666666666666,23.923491795857757L27.53333333333333,30.441574944390197L28,43.92840282122296L28.46666666666667,43.25185049904718L28.933333333333334,43.714029418097624L29.4,58.63626906606886L29.866666666666667,67.37943261199528L30.333333333333336,56.76579186651442L30.8,63.493096854951645L31.266666666666666,72.11348933643767L31.73333333333333,76.22306932343378L32.2,80.13479745388031L32.666666666666664,77.72327644295164L33.13333333333333,87.14335775375366L33.6,79.73858094215393L34.06666666666667,90.02345882521736L34.53333333333333,92.0571179787318L35,91.33187925815584L35.46666666666667,95.74026759465536L35.93333333333333,98.20696455902524L36.4,93.44050131903755L36.86666666666666,105.01599903901419L37.333333333333336,101.8950004975001L37.800000000000004,106.36817828814189L38.266666666666666,105.77607270081839L38.733333333333334,103.88020902209813L39.2,101.19495964050294L39.666666666666664,108.43745631641812L40.13333333333333,116.10379874043994L40.599999999999994,101.2173282702764L41.06666666666667,112.60994844304192L41.53333333333334,114.6855391992463L42,105.40365122424232L42.46666666666667,117.25144501527151L42.93333333333333,117.78640007972717L43.4,112.95142222775354L43.86666666666667,113.48172673914168L44.33333333333333,115.60179246134228L44.800000000000004,118.48890472782983L45.266666666666666,115.33488077587552L45.733333333333334,119.11379111475415L46.2,119.87364079554877L46.666666666666664,122.75965083969965L47.13333333333333,122.4336700571908L47.6,115.22385397884582L48.06666666666666,122.26801841788821L48.53333333333333,126.1699267493354L49,125.1365608904097L49.46666666666667,125.0177654888895L49.93333333333334,120.67159671915903L50.4,120.28263011905884L50.86666666666667,129.89955242474872L51.33333333333333,129.492051396105L51.8,118.07333448860382L52.266666666666666,128.97444896565543L52.733333333333334,128.89564006858402L53.2,128.81562874714535L53.66666666666667,127.22486256890826L54.13333333333333,127.76631897687912L54.6,127.15551392237346L55.06666666666666,129.34784004423352L55.53333333333333,130.0161256988843L56,130.53742381599216L56.46666666666667,130.86214028464423L56.93333333333334,132.6134566399786L57.4,132.43180509408313L57.86666666666667,133.29051586654452L58.333333333333336,129.10508294237985L58.8,133.51425963309077L59.266666666666666,130.7832812865575L59.733333333333334,135.87266472644276L60.199999999999996,135.8235642578867L60.66666666666667,132.2594664427969L61.13333333333333,130.94292669826083L61.6,126.8108307255639L62.06666666666667,126.69459047582416L62.53333333333333,130.14911147620944L63,139.67059282130666L63.46666666666666,134.70092281036906L63.93333333333333,129.45158451133304L64.4,134.25863399439388L64.86666666666666,134.64240187737676L65.33333333333333,135.12175512976117L65.8,133.2747075226572L66.26666666666667,137.88185248110028L66.73333333333333,137.16212192508908L67.2,136.37084269854756L67.66666666666667,137.70305079884L68.13333333333334,139.32053408026695L68.6,133.86296417315802L69.06666666666666,137.00106042292384L69.53333333333333,134.92185207870273L70,138.40406420495776L70.46666666666667,137.68005148569742L70.93333333333334,138.1458700961537L71.4,139.3779085841444L71.86666666666666,136.8980601032575L72.33333333333334,140.1943576766385L72.8,138.88372395767107L73.26666666666667,136.688855946064L73.73333333333332,139.5033659471406L74.2,137.94876975483365L74.66666666666667,136.90267971158028L75.13333333333333,141.7191791302628L75.60000000000001,140.62848297423787L76.06666666666666,140.05187333623567L76.53333333333333,139.82779949241214L77,140.52591588099799L77.46666666666667,138.45592759715186L77.93333333333334,140.3375124865108L78.4,137.4678663180934L78.86666666666667,138.39498707983228L79.33333333333333,138.72758414347967L79.8,140.36997794442706L80.26666666666667,135.6289778086874L80.73333333333333,139.155451234844L81.19999999999999,141.39816424250603L81.66666666666667,140.44894009166293L82.13333333333334,141.89279977811708L82.6,144.89771868785223L83.06666666666668,140.41913440823555L83.53333333333333,141.5427439841959L84,144.68501335382462L84.46666666666667,140.45600875549846L84.93333333333334,143.43577253487376L85.39999999999999,141.27371626761226L85.86666666666666,139.9227895438671L86.33333333333334,139.53294322888055L86.8,139.27895171112485L87.26666666666667,143.38630515005855L87.73333333333333,143.03234737118086L88.2,139.939381821288L88.66666666666666,142.5846785902977L89.13333333333334,141.27298243509398L89.60000000000001,143.3124444650279L90.06666666666666,144.70637406905493L90.53333333333333,143.49165579676628L91,144.07219247023264L91.46666666666667,144.53207263681622L91.93333333333332,143.55481844147047L92.4,140.7748707731565L92.86666666666666,144.10978738798036L93.33333333333333,143.25964536269507L93.80000000000001,145.46267099844084L94.26666666666667,145.9261775943968L94.73333333333333,144.25464563237296L95.2,143.989203085502L95.66666666666667,143.55117727650537L96.13333333333333,142.961872925361L96.6,142.58539474010468L97.06666666666666,144.05883318185806L97.53333333333333,140.158896472719L98,145.75924395852618L98.46666666666667,145.3822485539648L98.93333333333334,142.18530276748868L99.39999999999999,145.85523603028722L99.86666666666667,146.60257519284883L100.33333333333333,143.70437439282736L100.8,144.9601902332571L101.26666666666668,144.38636120160422L101.73333333333333,145.1665902071529L102.2,146.44189534253545L102.66666666666666,144.7950027651257L103.13333333333334,142.35120491186777L103.6,147.09806981351642L104.06666666666666,144.8226069509983L104.53333333333333,144.40666832195387L105,146.10353003111152L105.46666666666667,145.2457453906536L105.93333333333334,147.02887662748495L106.4,142.306850777732L106.86666666666666,143.46229954891734L107.33333333333334,145.0287225279543L107.8,148.8760598020421L108.26666666666667,144.42503623829947L108.73333333333332,148.6208091278871L109.2,144.1662232346005L109.66666666666667,149.77444100048808L110.13333333333333,148.62260244952307L110.60000000000001,147.5707286861208L111.06666666666666,146.33683793412314L111.53333333333333,143.82354407840305L112,146.38835503988795L112.46666666666667,146.24127245777183L112.93333333333334,146.34875018729105L113.4,144.7382574710581L113.86666666666667,144.3914037214385L114.33333333333333,147.15684640904269L114.8,143.8259975545936L115.26666666666667,146.23507761458555L115.73333333333333,144.9802380071746L116.19999999999999,146.00964293877283L116.66666666666667,146.3728281458219L117.13333333333334,146.18821548256608L117.6,147.39366580380334L118.06666666666668,147.44188950459161L118.53333333333333,143.51416294111146L119,146.00280857086182L119.46666666666667,147.54166715012656L119.93333333333334,147.75979518228107L120.39999999999999,144.30164185828633L120.86666666666666,146.25231457418866L121.33333333333334,147.43476337194443L121.8,146.6118004106813L122.26666666666667,147.93761400050587L122.73333333333333,149.2406367858251L123.2,146.31139840682349L123.66666666666666,145.0098698106077L124.13333333333334,146.93685874508486L124.60000000000001,146.5515760431687L125.06666666666666,145.0009577241209L125.53333333333333,146.18732839988337L126,146.8052625341548L126.46666666666667,144.6160065730413L126.93333333333332,149.17103763421377L127.4,149.1480280061563L127.86666666666666,147.99225136803256L128.33333333333331,144.28436732292175L128.8,146.75826704502106L129.26666666666668,149.96605380707317L129.73333333333332,150.18331833349333L130.20000000000002,144.97198607524237L130.66666666666666,146.9711049993833L131.13333333333333,147.61730421086153L131.6,147.03322215378284L132.06666666666666,146.8741587979926L132.53333333333333,148.96484395861626L133,147.44376976622476L133.46666666666667,148.61928325725927L133.93333333333334,150.49511831833257L134.4,147.01850719087653L134.86666666666667,148.4702482091056L135.33333333333334,147.90012296868696L135.79999999999998,148.82661894129382L136.26666666666668,150.20906436112193L136.73333333333335,148.1065133644475L137.2,147.6514731032981L137.66666666666666,150.4210623866982L138.13333333333333,149.08740651441946L138.6,143.65595176153712L139.06666666666666,148.46756338410907L139.53333333333333,147.74889968501196L140,150.2804745170805L140.46666666666667,150.04450094534292L140.93333333333334,146.4310433152649L141.4,148.49487285812697L141.86666666666667,148.91742334763208L142.33333333333331,147.35572091572814L142.8,149.98960570494333L143.26666666666668,147.2088380008936L143.73333333333332,149.51704998148813L144.20000000000002,147.62547804415226L144.66666666666669,148.89531185395188L145.13333333333333,148.0353036125501L145.6,147.28148963054022L146.06666666666666,148.41762372354665L146.53333333333333,146.9270809425248L147,149.1530889454815L147.46666666666664,149.57484887043634L147.93333333333334,145.6561508046256L148.4,148.958352930016L148.86666666666665,150.5498426258564L149.33333333333334,146.93337156706386L149.8,147.18213121261863L150.26666666666665,149.48989007373652L150.73333333333332,148.92850819726786L151.20000000000002,147.6610998660326L151.66666666666666,148.69030881424746L152.13333333333333,150.57357282439867L152.60000000000002,149.16522075898118L153.06666666666666,149.17977805104522L153.53333333333333,150.63399906953177L154,150.11579616367817L154.46666666666667,149.21966803736157L154.93333333333334,150.0148109363185L155.4,150.24340271287494L155.86666666666667,150.102697695295L156.33333333333334,150.98074082864656L156.8,149.80807204378976L157.26666666666665,149.21987433565988L157.73333333333335,148.16822455326715L158.2,150.48570153779454L158.66666666666666,149.68701325522528L159.13333333333333,148.54879849652448L159.6,151.42920238441891L160.06666666666666,150.44047284622988L160.53333333333333,149.65779478516845L161,147.99533921149043L161.46666666666667,149.59589719110065L161.93333333333334,151.75154052840338L162.39999999999998,146.9292087621159L162.86666666666667,150.10308008392653L163.33333333333334,152.04672502726316L163.79999999999998,150.117650638024L164.26666666666668,148.81801998615265L164.73333333333335,150.22431864672237L165.2,150.99379435347186L165.66666666666666,150.78766477770276L166.13333333333335,150.47160989046097L166.6,151.36424126062127L167.06666666666666,148.70564856628576L167.53333333333336,149.6076760871543L168,149.41338213947085L168.46666666666667,149.09980504214764L168.93333333333334,151.78872211277485L169.4,151.18892601960235L169.86666666666667,151.37781200475163L170.33333333333331,150.93759059243732L170.79999999999998,151.0596580323246L171.26666666666668,151.54275044136577L171.73333333333332,148.06455229057207L172.2,152.2640809143583L172.66666666666669,150.74386838575205L173.13333333333333,150.38889827165337L173.6,148.992502666182L174.06666666666666,151.17494194209576L174.53333333333333,150.69237117303743L175,150.36465085380607L175.46666666666667,151.64357357720533L175.93333333333334,151.36594174802303L176.4,152.39737208684286L176.86666666666667,151.72109900414944L177.33333333333331,151.36894338826338L177.8,149.95033535030154L178.26666666666668,151.4432107756535L178.73333333333332,151.39072627822557L179.20000000000002,151.69483207331763L179.66666666666669,151.60906208223767L180.13333333333333,149.64109493792057L180.6,151.3252398305469L181.06666666666666,149.5811674926016L181.53333333333333,152.2796965903706L182,152.32393836561175L182.46666666666664,149.96593886944981L182.93333333333334,150.92647553483644L183.4,150.4306567311287L183.86666666666665,149.06417511569128L184.33333333333334,150.77324084275298L184.8,150.39920508199268L185.26666666666665,153.15275172558097L185.73333333333332,151.71339597304663L186.20000000000002,151.48935749464565L186.66666666666666,148.65274042056666L187.13333333333333,152.49631938172712L187.60000000000002,152.57228394101062L188.06666666666666,149.68631994558706L188.53333333333333,150.7945580879847L189,150.80010161797205L189.46666666666667,151.90615373518733L189.93333333333334,149.82493914001518L190.4,150.11892895069388L190.86666666666667,152.50639521165027L191.33333333333334,150.75402710338435L191.8,151.7096383968989L192.26666666666665,151.03190575374498L192.73333333333335,152.87349124501148L193.2,150.67106350594096L193.66666666666666,151.81336297094822L194.13333333333333,149.50120627217822L194.6,151.09033753640122L195.06666666666666,150.77149983247122L195.53333333333333,152.25170927908687L196,152.78284819341368L196.46666666666667,152.05657577100726L196.93333333333334,152.0750464681122L197.39999999999998,152.03535467551814L197.86666666666667,151.5424572030703L198.33333333333334,151.7344435569313L198.79999999999998,152.29150790472826L199.26666666666668,151.5287648902999L199.73333333333335,151.98213413523303L200.2,147.46792803373603L200.66666666666666,150.40715935495166L201.13333333333335,151.6358661254247L201.6,149.80344727800951L202.06666666666666,152.45264824231467L202.53333333333336,151.80126504931184L203,151.71441788640288L203.46666666666667,151.63004261917538L203.93333333333334,151.4715546882815L204.4,152.18584117955632L204.86666666666667,151.76736802856126L205.33333333333331,152.4334868143002L205.79999999999998,149.58930964436797L206.26666666666668,149.54739277727074L206.73333333333332,150.71645428902573L207.2,150.9452029996448L207.66666666666669,150.28671651416354L208.13333333333333,152.5659181649486L208.6,151.94407209919558L209.06666666666666,151.19843489759498L209.53333333333333,152.75887633115053L210,152.75276069177522L210.46666666666667,152.48442812677888L210.93333333333334,150.27547325690588L211.4,151.26070603893862L211.86666666666667,152.57610598537656L212.33333333333331,151.05123001005916L212.8,150.97280350161924L213.26666666666668,152.694369431999L213.73333333333332,150.96353407700857L214.20000000000002,151.5260203861528L214.66666666666669,151.13375153972044L215.13333333333333,150.9913106693162L215.6,153.74812971966134L216.06666666666666,152.3464543513126L216.53333333333333,151.3840031640397L217,152.42954946392112L217.46666666666664,152.41589877920018L217.93333333333334,151.76443490882716L218.4,151.82689098185963L218.86666666666665,151.6039864073197L219.33333333333334,153.01459007130728L219.8,151.960141999854L220.26666666666665,154.2288552241193L220.73333333333332,150.87620800733566L221.20000000000002,151.94408609800868L221.66666666666666,150.55501776602534L222.13333333333333,152.29016438706054L222.60000000000002,151.9317840884129L223.06666666666666,151.5515225397216L223.53333333333333,152.70256352672973L224,152.15472623871432L224.46666666666667,151.78939037190543L224.93333333333334,152.1071840590901L225.4,154.0242975677053L225.86666666666667,153.90307300372257L226.33333333333334,152.86983865996203L226.8,151.81971843209533L227.26666666666665,153.28464854260287L227.73333333333335,152.3262371180786L228.2,153.4783361206452L228.66666666666666,152.26182452672057L229.13333333333333,152.85766816553144L229.6,151.9787987338172L230.06666666666666,153.672333146135L230.53333333333333,150.77909676730633L231,152.96389300127825L231.46666666666667,151.02680281798044L231.93333333333334,152.90208934661416L232.39999999999998,151.75443975627422L232.86666666666667,152.54167774650784L233.33333333333334,152.8017930082149L233.79999999999998,152.25066820946006L234.26666666666668,152.57071496877404L234.73333333333335,150.6242433703608L235.2,152.4815462132295L235.66666666666666,152.51389931225114L236.13333333333335,152.51891788674726L236.6,152.01988377670446L237.06666666666666,150.46972005069256L237.53333333333336,152.70289213044776L238,153.6057010061211L238.46666666666667,153.12245608369508L238.93333333333334,151.36783453491L239.4,151.52065884073576L239.86666666666667,153.92335028449693L240.33333333333331,154.6874066086279L240.79999999999998,152.84117240624295L241.26666666666668,151.29788246585264L241.73333333333332,153.0309384746684L242.2,154.06863217718072L242.66666666666669,152.56921120153532L243.13333333333333,153.03063897374602L243.6,152.39423672109842L244.06666666666666,152.45345317406787L244.53333333333333,153.8293633585175L245,153.106740574042L245.46666666666667,153.89049322820372L245.93333333333334,152.49551997582117L246.4,150.05930800570383L246.86666666666667,152.87308196392325L247.33333333333331,153.29461090846195L247.8,152.85808702475495L248.26666666666668,153.08871673378678L248.73333333333332,153.5475064665079L249.20000000000002,152.24097734689713L249.66666666666669,148.45696922971143L250.13333333333333,150.35748788217703L250.6,153.74989578045077L251.06666666666666,153.10237699664302L251.53333333333333,153.7930397540331L252,152.73401885976395L252.46666666666664,153.0409093134933L252.93333333333334,153.7705823423134L253.4,152.5617704639832L253.86666666666665,153.7056042725841L254.33333333333334,152.63173432151476L254.8,153.1303974630104L255.26666666666665,154.0428972012467L255.73333333333332,150.6066601243284L256.2,149.59774061375194" style="fill: none;" fill="none"></path></g></g></g></g></g></g><g transform="translate(50, 178)" clip-path="url(#clip_1)"><clipPath id="clip_1"><rect width="280" height="22"></rect></clipPath><g><g><line x1="0" y1="0" x2="0" y2="5" style="visibility: inherit;" fill="rgb(0, 0, 0)" stroke="rgb(204, 204, 204)" stroke-width="1px"></line><line x1="23.333333333333332" y1="0" x2="23.333333333333332" y2="5" style="visibility: inherit;" fill="rgb(0, 0, 0)" stroke="rgb(204, 204, 204)" stroke-width="1px"></line><line x1="46.666666666666664" y1="0" x2="46.666666666666664" y2="5" style="visibility: inherit;" fill="rgb(0, 0, 0)" stroke="rgb(204, 204, 204)" stroke-width="1px"></line><line x1="70" y1="0" x2="70" y2="5" style="visibility: inherit;" fill="rgb(0, 0, 0)" stroke="rgb(204, 204, 204)" stroke-width="1px"></line><line x1="93.33333333333333" y1="0" x2="93.33333333333333" y2="5" style="visibility: inherit;" fill="rgb(0, 0, 0)" stroke="rgb(204, 204, 204)" stroke-width="1px"></line><line x1="116.66666666666667" y1="0" x2="116.66666666666667" y2="5" style="visibility: inherit;" fill="rgb(0, 0, 0)" stroke="rgb(204, 204, 204)" stroke-width="1px"></line><line x1="140" y1="0" x2="140" y2="5" style="visibility: inherit;" fill="rgb(0, 0, 0)" stroke="rgb(204, 204, 204)" stroke-width="1px"></line><line x1="163.33333333333334" y1="0" x2="163.33333333333334" y2="5" style="visibility: inherit;" fill="rgb(0, 0, 0)" stroke="rgb(204, 204, 204)" stroke-width="1px"></line><line x1="186.66666666666666" y1="0" x2="186.66666666666666" y2="5" style="visibility: inherit;" fill="rgb(0, 0, 0)" stroke="rgb(204, 204, 204)" stroke-width="1px"></line><line x1="210" y1="0" x2="210" y2="5" style="visibility: inherit;" fill="rgb(0, 0, 0)" stroke="rgb(204, 204, 204)" stroke-width="1px"></line><line x1="233.33333333333334" y1="0" x2="233.33333333333334" y2="5" style="visibility: inherit;" fill="rgb(0, 0, 0)" stroke="rgb(204, 204, 204)" stroke-width="1px"></line><line x1="256.66666666666663" y1="0" x2="256.66666666666663" y2="5" style="visibility: inherit;" fill="rgb(0, 0, 0)" stroke="rgb(204, 204, 204)" stroke-width="1px"></line><line x1="280" y1="0" x2="280" y2="5" style="visibility: inherit;" fill="rgb(0, 0, 0)" stroke="rgb(204, 204, 204)" stroke-width="1px"></line></g><g transform="translate(0, 8)"><text x="0" y="0" dx="0em" dy="0.95em" style="text-anchor: middle; visibility: hidden; font-family: &quot;Helvetica Neue&quot;, sans-serif; font-size: 12px; font-weight: 200;" fill="rgb(50, 49, 63)" stroke="none" stroke-width="1px">-50</text><text x="23.333333333333332" y="0" dx="0em" dy="0.95em" style="text-anchor: middle; visibility: inherit; font-family: &quot;Helvetica Neue&quot;, sans-serif; font-size: 12px; font-weight: 200;" fill="rgb(50, 49, 63)" stroke="none" stroke-width="1px">0</text><text x="46.666666666666664" y="0" dx="0em" dy="0.95em" style="text-anchor: middle; visibility: hidden; font-family: &quot;Helvetica Neue&quot;, sans-serif; font-size: 12px; font-weight: 200;" fill="rgb(50, 49, 63)" stroke="none" stroke-width="1px">50</text><text x="70" y="0" dx="0em" dy="0.95em" style="text-anchor: middle; visibility: inherit; font-family: &quot;Helvetica Neue&quot;, sans-serif; font-size: 12px; font-weight: 200;" fill="rgb(50, 49, 63)" stroke="none" stroke-width="1px">100</text><text x="93.33333333333333" y="0" dx="0em" dy="0.95em" style="text-anchor: middle; visibility: hidden; font-family: &quot;Helvetica Neue&quot;, sans-serif; font-size: 12px; font-weight: 200;" fill="rgb(50, 49, 63)" stroke="none" stroke-width="1px">150</text><text x="116.66666666666667" y="0" dx="0em" dy="0.95em" style="text-anchor: middle; visibility: inherit; font-family: &quot;Helvetica Neue&quot;, sans-serif; font-size: 12px; font-weight: 200;" fill="rgb(50, 49, 63)" stroke="none" stroke-width="1px">200</text><text x="140" y="0" dx="0em" dy="0.95em" style="text-anchor: middle; visibility: hidden; font-family: &quot;Helvetica Neue&quot;, sans-serif; font-size: 12px; font-weight: 200;" fill="rgb(50, 49, 63)" stroke="none" stroke-width="1px">250</text><text x="163.33333333333334" y="0" dx="0em" dy="0.95em" style="text-anchor: middle; visibility: inherit; font-family: &quot;Helvetica Neue&quot;, sans-serif; font-size: 12px; font-weight: 200;" fill="rgb(50, 49, 63)" stroke="none" stroke-width="1px">300</text><text x="186.66666666666666" y="0" dx="0em" dy="0.95em" style="text-anchor: middle; visibility: hidden; font-family: &quot;Helvetica Neue&quot;, sans-serif; font-size: 12px; font-weight: 200;" fill="rgb(50, 49, 63)" stroke="none" stroke-width="1px">350</text><text x="210" y="0" dx="0em" dy="0.95em" style="text-anchor: middle; visibility: inherit; font-family: &quot;Helvetica Neue&quot;, sans-serif; font-size: 12px; font-weight: 200;" fill="rgb(50, 49, 63)" stroke="none" stroke-width="1px">400</text><text x="233.33333333333334" y="0" dx="0em" dy="0.95em" style="text-anchor: middle; visibility: hidden; font-family: &quot;Helvetica Neue&quot;, sans-serif; font-size: 12px; font-weight: 200;" fill="rgb(50, 49, 63)" stroke="none" stroke-width="1px">450</text><text x="256.66666666666663" y="0" dx="0em" dy="0.95em" style="text-anchor: middle; visibility: inherit; font-family: &quot;Helvetica Neue&quot;, sans-serif; font-size: 12px; font-weight: 200;" fill="rgb(50, 49, 63)" stroke="none" stroke-width="1px">500</text><text x="280" y="0" dx="0em" dy="0.95em" style="text-anchor: middle; visibility: hidden; font-family: &quot;Helvetica Neue&quot;, sans-serif; font-size: 12px; font-weight: 200;" fill="rgb(50, 49, 63)" stroke="none" stroke-width="1px">550</text></g><line x1="0" y1="0" x2="280" y2="0" fill="rgb(0, 0, 0)" stroke="rgb(204, 204, 204)" stroke-width="1px"></line></g></g></g></g></svg>