<svg viewBox="0 0 330 200" xmlns="http://www.w3.org/2000/svg"><g><g><g><g><g><line x1="50" y1="178" x2="45" y2="178" style="visibility: inherit;" fill="rgb(0, 0, 0)" stroke="rgb(204, 204, 204)" stroke-width="1px"></line><line x1="50" y1="164.3076923076923" x2="45" y2="164.3076923076923" style="visibility: inherit;" fill="rgb(0, 0, 0)" stroke="rgb(204, 204, 204)" stroke-width="1px"></line><line x1="50" y1="150.61538461538458" x2="45" y2="150.61538461538458" style="visibility: inherit;" fill="rgb(0, 0, 0)" stroke="rgb(204, 204, 204)" stroke-width="1px"></line><line x1="50" y1="136.92307692307688" x2="45" y2="136.92307692307688" style="visibility: inherit;" fill="rgb(0, 0, 0)" stroke="rgb(204, 204, 204)" stroke-width="1px"></line><line x1="50" y1="123.2307692307692" x2="45" y2="123.2307692307692" style="visibility: inherit;" fill="rgb(0, 0, 0)" stroke="rgb(204, 204, 204)" stroke-width="1px"></line><line x1="50" y1="109.53846153846163" x2="45" y2="109.53846153846163" style="visibility: inherit;" fill="rgb(0, 0, 0)" stroke="rgb(204, 204, 204)" stroke-width="1px"></line><line x1="50" y1="95.84615384615392" x2="45" y2="95.84615384615392" style="visibility: inherit;" fill="rgb(0, 0, 0)" stroke="rgb(204, 204, 204)" stroke-width="1px"></line><line x1="50" y1="82.15384615384622" x2="45" y2="82.15384615384622" style="visibility: inherit;" fill="rgb(0, 0, 0)" stroke="rgb(204, 204, 204)" stroke-width="1px"></line><line x1="50" y1="68.46153846153851" x2="45" y2="68.46153846153851" style="visibility: inherit;" fill="rgb(0, 0, 0)" stroke="rgb(204, 204, 204)" stroke-width="1px"></line><line x1="50" y1="54.769230769230816" x2="45" y2="54.769230769230816" style="visibility: inherit;" fill="rgb(0, 0, 0)" stroke="rgb(204, 204, 204)" stroke-width="1px"></line><line x1="50" y1="41.07692307692312" x2="45" y2="41.07692307692312" style="visibility: inherit;" fill="rgb(0, 0, 0)" stroke="rgb(204, 204, 204)" stroke-width="1px"></line><line x1="50" y1="27.384615384615415" x2="45" y2="27.384615384615415" style="visibility: inherit;" fill="rgb(0, 0, 0)" stroke="rgb(204, 204, 204)" stroke-width="1px"></line><line x1="50" y1="13.692307692307708" x2="45" y2="13.692307692307708" style="visibility: inherit;" fill="rgb(0, 0, 0)" stroke="rgb(204, 204, 204)" stroke-width="1px"></line><line x1="50" y1="0" x2="45" y2="0" style="visibility: inherit;" fill="rgb(0, 0, 0)" stroke="rgb(204, 204, 204)" stroke-width="1px"></line></g><g transform="translate(40, 0)"><text x="0" y="178" dx="0em" dy="0.3em" style="text-anchor: end; visibility: hidden; font-family: &quot;Helvetica Neue&quot;, sans-serif; font-size: 12px; font-weight: 200;" fill="rgb(50, 49, 63)" stroke="none" stroke-width="1px">0.89</text><text x="0" y="164.3076923076923" dx="0em" dy="0.3em" style="text-anchor: end; visibility: inherit; font-family: &quot;Helvetica Neue&quot;, sans-serif; font-size: 12px; font-weight: 200;" fill="rgb(50, 49, 63)" stroke="none" stroke-width="1px">0.9</text><text x="0" y="150.61538461538458" dx="0em" dy="0.3em" style="text-anchor: end; visibility: hidden; font-family: &quot;Helvetica Neue&quot;, sans-serif; font-size: 12px; font-weight: 200;" fill="rgb(50, 49, 63)" stroke="none" stroke-width="1px">0.91</text><text x="0" y="136.92307692307688" dx="0em" dy="0.3em" style="text-anchor: end; visibility: inherit; font-family: &quot;Helvetica Neue&quot;, sans-serif; font-size: 12px; font-weight: 200;" fill="rgb(50, 49, 63)" stroke="none" stroke-width="1px">0.92</text><text x="0" y="123.2307692307692" dx="0em" dy="0.3em" style="text-anchor: end; visibility: hidden; font-family: &quot;Helvetica Neue&quot;, sans-serif; font-size: 12px; font-weight: 200;" fill="rgb(50, 49, 63)" stroke="none" stroke-width="1px">0.93</text><text x="0" y="109.53846153846163" dx="0em" dy="0.3em" style="text-anchor: end; visibility: inherit; font-family: &quot;Helvetica Neue&quot;, sans-serif; font-size: 12px; font-weight: 200;" fill="rgb(50, 49, 63)" stroke="none" stroke-width="1px">0.94</text><text x="0" y="95.84615384615392" dx="0em" dy="0.3em" style="text-anchor: end; visibility: hidden; font-family: &quot;Helvetica Neue&quot;, sans-serif; font-size: 12px; font-weight: 200;" fill="rgb(50, 49, 63)" stroke="none" stroke-width="1px">0.95</text><text x="0" y="82.15384615384622" dx="0em" dy="0.3em" style="text-anchor: end; visibility: inherit; font-family: &quot;Helvetica Neue&quot;, sans-serif; font-size: 12px; font-weight: 200;" fill="rgb(50, 49, 63)" stroke="none" stroke-width="1px">0.96</text><text x="0" y="68.46153846153851" dx="0em" dy="0.3em" style="text-anchor: end; visibility: hidden; font-family: &quot;Helvetica Neue&quot;, sans-serif; font-size: 12px; font-weight: 200;" fill="rgb(50, 49, 63)" stroke="none" stroke-width="1px">0.97</text><text x="0" y="54.769230769230816" dx="0em" dy="0.3em" style="text-anchor: end; visibility: inherit; font-family: &quot;Helvetica Neue&quot;, sans-serif; font-size: 12px; font-weight: 200;" fill="rgb(50, 49, 63)" stroke="none" stroke-width="1px">0.98</text><text x="0" y="41.07692307692312" dx="0em" dy="0.3em" style="text-anchor: end; visibility: hidden; font-family: &quot;Helvetica Neue&quot;, sans-serif; font-size: 12px; font-weight: 200;" fill="rgb(50, 49, 63)" stroke="none" stroke-width="1px">0.99</text><text x="0" y="27.384615384615415" dx="0em" dy="0.3em" style="text-anchor: end; visibility: inherit; font-family: &quot;Helvetica Neue&quot;, sans-serif; font-size: 12px; font-weight: 200;" fill="rgb(50, 49, 63)" stroke="none" stroke-width="1px">1</text><text x="0" y="13.692307692307708" dx="0em" dy="0.3em" style="text-anchor: end; visibility: hidden; font-family: &quot;Helvetica Neue&quot;, sans-serif; font-size: 12px; font-weight: 200;" fill="rgb(50, 49, 63)" stroke="none" stroke-width="1px">1.01</text><text x="0" y="0" dx="0em" dy="0.3em" style="text-anchor: end; visibility: hidden; font-family: &quot;Helvetica Neue&quot;, sans-serif; font-size: 12px; font-weight: 200;" fill="rgb(50, 49, 63)" stroke="none" stroke-width="1px">1.02</text></g><line x1="50" y1="0" x2="50" y2="178" fill="rgb(0, 0, 0)" stroke="rgb(204, 204, 204)" stroke-width="1px"></line></g></g><g transform="translate(50, 0)" clip-path="url(#clip_0)"><clipPath id="clip_0"><rect width="280" height="178"></rect></clipPath><g><g><g><line x1="0" y1="0" x2="0" y2="178" fill="rgb(0, 0, 0)" stroke="rgb(60, 60, 60)" stroke-width="1px" opacity="0.25"></line><line x1="23.333333333333332" y1="0" x2="23.333333333333332" y2="178" fill="rgb(0, 0, 0)" stroke="rgb(60, 60, 60)" stroke-width="1px" opacity="0.25"></line><line x1="46.666666666666664" y1="0" x2="46.666666666666664" y2="178" fill="rgb(0, 0, 0)" stroke="rgb(60, 60, 60)" stroke-width="1px" opacity="0.25"></line><line x1="70" y1="0" x2="70" y2="178" fill="rgb(0, 0, 0)" stroke="rgb(60, 60, 60)" stroke-width="1px" opacity="0.25"></line><line x1="93.33333333333333" y1="0" x2="93.33333333333333" y2="178" fill="rgb(0, 0, 0)" stroke="rgb(60, 60, 60)" stroke-width="1px" opacity="0.25"></line><line x1="116.66666666666667" y1="0" x2="116.66666666666667" y2="178" fill="rgb(0, 0, 0)" stroke="rgb(60, 60, 60)" stroke-width="1px" opacity="0.25"></line><line x1="140" y1="0" x2="140" y2="178" fill="rgb(0, 0, 0)" stroke="rgb(60, 60, 60)" stroke-width="1px" opacity="0.25"></line><line x1="163.33333333333334" y1="0" x2="163.33333333333334" y2="178" fill="rgb(0, 0, 0)" stroke="rgb(60, 60, 60)" stroke-width="1px" opacity="0.25"></line><line x1="186.66666666666666" y1="0" x2="186.66666666666666" y2="178" fill="rgb(0, 0, 0)" stroke="rgb(60, 60, 60)" stroke-width="1px" opacity="0.25"></line><line x1="210" y1="0" x2="210" y2="178" fill="rgb(0, 0, 0)" stroke="rgb(60, 60, 60)" stroke-width="1px" opacity="0.25"></line><line x1="233.33333333333334" y1="0" x2="233.33333333333334" y2="178" fill="rgb(0, 0, 0)" stroke="rgb(60, 60, 60)" stroke-width="1px" opacity="0.25"></line><line x1="256.66666666666663" y1="0" x2="256.66666666666663" y2="178" fill="rgb(0, 0, 0)" stroke="rgb(60, 60, 60)" stroke-width="1px" opacity="0.25"></line><line x1="280" y1="0" x2="280" y2="178" fill="rgb(0, 0, 0)" stroke="rgb(60, 60, 60)" stroke-width="1px" opacity="0.25"></line></g><g><line x1="0" y1="178" x2="280" y2="178" fill="rgb(0, 0, 0)" stroke="rgb(60, 60, 60)" stroke-width="1px" opacity="0.25"></line><line x1="0" y1="164.3076923076923" x2="280" y2="164.3076923076923" fill="rgb(0, 0, 0)" stroke="rgb(60, 60, 60)" stroke-width="1px" opacity="0.25"></line><line x1="0" y1="150.61538461538458" x2="280" y2="150.61538461538458" fill="rgb(0, 0, 0)" stroke="rgb(60, 60, 60)" stroke-width="1px" opacity="0.25"></line><line x1="0" y1="136.92307692307688" x2="280" y2="136.92307692307688" fill="rgb(0, 0, 0)" stroke="rgb(60, 60, 60)" stroke-width="1px" opacity="0.25"></line><line x1="0" y1="123.2307692307692" x2="280" y2="123.2307692307692" fill="rgb(0, 0, 0)" stroke="rgb(60, 60, 60)" stroke-width="1px" opacity="0.25"></line><line x1="0" y1="109.53846153846163" x2="280" y2="109.53846153846163" fill="rgb(0, 0, 0)" stroke="rgb(60, 60, 60)" stroke-width="1px" opacity="0.25"></line><line x1="0" y1="95.84615384615392" x2="280" y2="95.84615384615392" fill="rgb(0, 0, 0)" stroke="rgb(60, 60, 60)" stroke-width="1px" opacity="0.25"></line><line x1="0" y1="82.15384615384622" x2="280" y2="82.15384615384622" fill="rgb(0, 0, 0)" stroke="rgb(60, 60, 60)" stroke-width="1px" opacity="0.25"></line><line x1="0" y1="68.46153846153851" x2="280" y2="68.46153846153851" fill="rgb(0, 0, 0)" stroke="rgb(60, 60, 60)" stroke-width="1px" opacity="0.25"></line><line x1="0" y1="54.769230769230816" x2="280" y2="54.769230769230816" fill="rgb(0, 0, 0)" stroke="rgb(60, 60, 60)" stroke-width="1px" opacity="0.25"></line><line x1="0" y1="41.07692307692312" x2="280" y2="41.07692307692312" fill="rgb(0, 0, 0)" stroke="rgb(60, 60, 60)" stroke-width="1px" opacity="0.25"></line><line x1="0" y1="27.384615384615415" x2="280" y2="27.384615384615415" fill="rgb(0, 0, 0)" stroke="rgb(60, 60, 60)" stroke-width="1px" opacity="0.25"></line><line x1="0" y1="13.692307692307708" x2="280" y2="13.692307692307708" fill="rgb(0, 0, 0)" stroke="rgb(60, 60, 60)" stroke-width="1px" opacity="0.25"></line><line x1="0" y1="0" x2="280" y2="0" fill="rgb(0, 0, 0)" stroke="rgb(60, 60, 60)" stroke-width="1px" opacity="0.25"></line></g></g></g><g><g><line x1="0" y1="1396.6153846153845" x2="280" y2="1396.6153846153845" fill="rgb(0, 0, 0)" stroke="rgb(153, 153, 153)" stroke-width="1.5px"></line></g></g><g><g><line x1="23.333333333333332" y1="0" x2="23.333333333333332" y2="178" fill="rgb(0, 0, 0)" stroke="rgb(153, 153, 153)" stroke-width="1.5px"></line></g></g><g><g><g><g><g><path stroke="rgb(255, 112, 67)" stroke-width="2px" d="M32.666666666666664,178.14249535023467L33.13333333333333,171.21763586402005L33.6,164.89496127844845L34.06666666666667,159.09919848085872L34.53333333333333,153.7671180565774L35,148.84521819320125L35.46666666666667,144.2879232727592L35.93333333333333,140.05616847982688L36.4,136.11627724939729L36.86666666666666,132.43906322510804L37.333333333333336,128.9991060320786L37.800000000000004,126.20871574955984L38.266666666666666,123.16585967857557L38.733333333333334,120.71140902589954L39.2,117.99932693920883L39.666666666666664,115.82496959473964L40.13333333333333,113.39139209203138L40.599999999999994,111.45294472495154L41.06666666666667,109.25611699904829L41.53333333333334,107.5181722315906L42,105.52433193939537L42.46666666666667,103.62544941138427L42.93333333333333,101.81489968716077L43.4,100.08666007544592L43.86666666666667,98.43524323531095L44.33333333333333,96.85563898588512L44.800000000000004,95.64134307576145L45.266666666666666,94.18563752480729L45.733333333333334,92.78935970797197L46.2,91.44894396110134L46.666666666666664,90.16110427997387L47.13333333333333,88.92280742992168L47.6,87.99637173632959L48.06666666666666,86.84391436316878L48.53333333333333,85.73337453527098L49,84.66250666974399L49.46666666666667,83.62922276846807L49.93333333333334,82.63157883317801L50.4,81.66776266210942L50.86666666666667,80.73608286694292L51.33333333333333,79.8349589700715L51.8,78.96291246017225L52.266666666666666,78.34270608568096L52.733333333333334,77.52113315571295L53.2,76.7248478944927L53.66666666666667,76.16697761237995L54.13333333333333,75.41458309676914L54.6,74.68432599375087L55.06666666666666,73.9752438070176L55.53333333333333,73.28642904004796L56,72.61702532288412L56.46666666666667,71.9662238616771L56.93333333333334,71.33326018004216L57.4,70.71741112464697L57.86666666666667,70.11799211033271L58.333333333333336,69.5343545827367L58.8,68.96588367863326L59.266666666666666,68.41199606623826L59.733333333333334,67.87213794955572L60.199999999999996,67.34578322238696L60.66666666666667,66.83243175908625L61.13333333333333,66.3316078303788L61.6,65.84285863370046L62.06666666666667,65.53561695076623L62.53333333333333,65.23560868775675L63,64.77650409491541L63.46666666666666,64.32796006546411L63.93333333333333,64.05207962193215L64.4,63.62168589048203L64.86666666666666,63.20086271185575L65.33333333333333,62.789294573209546L65.8,62.38667967965189L66.26666666666667,61.992729216714935L66.73333333333333,61.60716665990597L67.2,61.22972712786742L67.66666666666667,60.86015677596666L68.13333333333334,60.49821222738515L68.6,60.143660039053216L69.06666666666666,59.79627619994447L69.53333333333333,59.59966042074751L70,59.2644803305009L70.46666666666667,58.93587793500143L70.93333333333334,58.613661650793716L71.4,58.297647263021645L71.86666666666666,57.987657574529706L72.33333333333334,57.683522074849705L72.8,57.385076627735L73.26666666666667,57.09216317606061L73.73333333333332,56.804629462958005L74.2,56.522328768173466L74.66666666666667,56.24511965866698L75.13333333333333,55.9728657525812L75.60000000000001,55.705435495727954L76.06666666666666,55.442701949859895L76.53333333333333,55.18454259197037L77,54.93083912398308L77.46666666666667,54.805426611119216L77.93333333333334,54.55918294836242L78.4,54.3170825995731L78.86666666666667,54.079021981788415L79.33333333333333,53.84490093627784L79.8,53.6146225881991L80.26666666666667,53.38809321311443L80.73333333333333,53.16522210995063L81.19999999999999,52.945921480070794L81.66666666666667,52.730106312093994L82.13333333333334,52.517694272161734L82.6,52.308605599349235L83.06666666666668,52.10276300593546L83.53333333333333,51.90009158228452L84,51.70051870607685L84.46666666666667,51.50397395566519L84.93333333333334,51.310389027350666L85.39999999999999,51.11969765634642L85.86666666666666,51.1485833410715L86.33333333333334,50.9617843040767L86.8,50.77771643546322L87.26666666666667,50.59632036189332L87.73333333333333,50.41753841860975L88.2,50.34607370218946L88.66666666666666,50.1715573454734L89.13333333333334,49.99950301164387L89.60000000000001,49.829859049753566L90.06666666666666,49.662575243609695L90.53333333333333,49.497602762288324L91,49.33489411269974L91.46666666666667,49.1744030940842L91.93333333333332,49.0160847543477L92.4,48.95876017013481L92.86666666666666,48.80394768113487L93.33333333333333,48.651189510068406L93.80000000000001,48.500445111071144L94.26666666666667,48.35167499830399L94.73333333333333,48.2048407115293L95.2,48.05990478303369L95.66666666666667,47.91683070581334L96.13333333333333,47.775582902977874L96.6,47.6361266983169L97.06666666666666,47.49842828797651L97.53333333333333,47.362454713198815L98,47.22817383407602L98.46666666666667,47.095554304279204L98.93333333333334,47.05555749132196L99.39999999999999,46.92556838360795L99.86666666666667,46.79715841329977L100.33333333333333,46.670299041654715L100.8,46.544962413492215L101.26666666666668,46.42112133685001L101.73333333333333,46.29874926336083L102.2,46.17782026932525L102.66666666666666,46.058309037444246L103.13333333333334,46.02679979841659L103.6,45.909505544469795L104.06666666666666,45.793562845077645L104.53333333333333,45.67894853061807L105,45.56563995804936L105.46666666666667,45.45361499604013L105.93333333333334,45.34285201058725L106.4,45.23332985113021L106.86666666666666,45.12502783712094L107.33333333333334,45.01792574503975L107.8,44.9120037958358L108.26666666666667,44.80724264279101L108.73333333333332,44.703623359763924L109.2,44.60112742983014L109.66666666666667,44.499736734274165L110.13333333333333,44.39943354194949L110.60000000000001,44.30020049896419L111.06666666666666,44.20202061870566L111.53333333333333,44.10487727217313L112,44.00875417861684L112.46666666666667,43.913635396469715L112.93333333333334,43.819505314557205L113.4,43.72634864358446L113.86666666666667,43.63415040788277L114.33333333333333,43.54289593741157L114.8,43.4525708599937L115.26666666666667,43.36316109380169L115.73333333333333,43.2746528400578L116.19999999999999,43.18703257595993L116.66666666666667,43.10028704781712L117.13333333333334,43.01440326438458L117.6,42.92936849040342L118.06666666666668,42.84517024032485L118.53333333333333,42.83563456242268L119,42.752676426579995L119.46666666666667,42.67052264010752L119.93333333333334,42.589161601696475L120.39999999999999,42.50858193207188L120.86666666666666,42.42877246870805L121.33333333333334,42.349722260687514L121.8,42.27142056371582L122.26666666666667,42.19385683526775L122.73333333333333,42.11702072987319L123.2,42.04090209453781L123.66666666666666,41.96549096428217L124.13333333333334,41.96093781457685L124.60000000000001,41.88655450065022L125.06666666666666,41.81285316481447L125.53333333333333,41.73982450725288L126,41.66745939646964L126.46666666666667,41.595748865499814L126.93333333333332,41.524684108220384L127.4,41.454256475760445L127.86666666666666,41.3844574730052L128.33333333333331,41.315278755195976L128.8,41.246712124618114L129.26666666666668,41.17874952737645L129.73333333333332,41.111383050252954L130.20000000000002,41.11121534546521L130.66666666666666,41.04469511683894L131.13333333333333,40.97875087764274L131.6,40.91337521158738L132.06666666666666,40.84856082915593L132.53333333333333,40.784300564908904L133,40.72058737485352L133.46666666666667,40.65741433388334L133.93333333333334,40.594774633279684L134.4,40.53266157827639L134.86666666666667,40.471068585686254L135.33333333333334,40.4099891815857L135.79999999999998,40.349416999059486L136.26666666666668,40.28934577599509L136.73333333333335,40.229769352937836L137.2,40.17068167099518L137.66666666666666,40.11207676979342L138.13333333333333,40.05394878548063L138.6,40.05860417711909L139.06666666666666,40.00113023827504L139.53333333333333,39.94411845690004L140,39.88756330908538L140.46666666666667,39.83145935859682L140.93333333333334,39.837028595411994L141.4,39.781538232105675L141.86666666666667,39.72648541777957L142.33333333333331,39.67186502478776L142.8,39.61767200529249L143.26666666666668,39.56390138971645L143.73333333333332,39.51054828523161L144.20000000000002,39.45760787428449L144.66666666666669,39.40507541315358L145.13333333333333,39.41232566574479L145.6,39.36033850671237L146.06666666666666,39.30874745090787L146.53333333333333,39.25754801402303L147,39.20673577918629L147.46666666666664,39.15630639569318L147.93333333333334,39.164472408728415L148.4,39.11454921060715L148.86666666666665,39.06499803509061L149.33333333333334,39.07346971072187L149.8,39.024408291551424L150.26666666666665,38.97570850395874L150.73333333333332,38.927366388352596L151.20000000000002,38.8793780427379L151.66666666666666,38.83173962166845L152.13333333333333,38.784447335227924L152.60000000000002,38.73749744803092L153.06666666666666,38.69088627824547L153.53333333333333,38.64461019663625L154,38.598665625629934L154.46666666666667,38.553049038398456L154.93333333333334,38.50775695796156L155.4,38.46278595631193L155.86666666666667,38.41813265355239L156.33333333333334,38.37379371705734L156.8,38.32976586064831L157.26666666666665,38.286045843788685L157.73333333333335,38.24263047079205L158.2,38.19951659005059L158.66666666666666,38.15670109327755L159.13333333333333,38.11418091476324L159.6,38.071953030652196L160.06666666666666,38.03001445822929L160.53333333333333,37.98836225522098L161,37.94699351911612L161.46666666666667,37.90590538649204L161.93333333333334,37.865095032362234L162.39999999999998,37.87751737276983L162.86666666666667,37.83705001233483L163.33333333333334,37.7968535468853L163.79999999999998,37.75692528529311L164.26666666666668,37.717262571953626L164.73333333333335,37.6778627862046L165.2,37.638723341752154L165.66666666666666,37.59984168611109L166.13333333333335,37.561215300053135L166.6,37.52284169706448L167.06666666666666,37.48471842282066L167.53333333333336,37.44684305466623L168,37.460418466868305L168.46666666666667,37.47390615849383L168.93333333333334,37.436380612380304L169.4,37.39909602631974L169.86666666666667,37.36205010533283L170.33333333333331,37.32524058349023L170.79999999999998,37.28866522345422L171.26666666666668,37.25232181603113L171.73333333333332,37.21620817972553L172.2,37.18032216031381L172.66666666666669,37.14466163041175L173.13333333333333,37.10922448906578L173.6,37.07400866133719L174.06666666666666,37.0390120979051L174.53333333333333,37.00423277466956L175,36.96966869236758L175.46666666666667,36.93531787618852L175.93333333333334,36.90117837540751L176.4,36.867248263015256L176.86666666666667,36.833525635359166L177.33333333333331,36.80000861179229L177.8,36.76669533432431L178.26666666666668,36.73358396728378L178.73333333333332,36.70067269698251L179.20000000000002,36.66795973138875L179.66666666666669,36.63544329980374L180.13333333333333,36.60312165254493L180.6,36.570993060636226L181.06666666666666,36.53905581550103L181.53333333333333,36.50730822866598L182,36.4757486314609L182.46666666666664,36.444375374732545L182.93333333333334,36.413186828560185L183.4,36.3821813819747L183.86666666666665,36.35135744268453L184.33333333333334,36.32071343680559L184.8,36.29024780859672L185.26666666666665,36.25995902019815L185.73333333333332,36.22984555137626L186.20000000000002,36.19990589927036L186.66666666666666,36.17013857814604L187.13333333333333,36.14054211915294L187.60000000000002,36.11111507008334L188.06666666666666,36.08185599513939L188.53333333333333,36.05276347469939L189,36.02383610509423L189.46666666666667,35.99507249838015L189.93333333333334,35.96647128212126L190.4,35.983407223991236L190.86666666666667,35.95497670343937L191.33333333333334,35.926705387064544L191.8,35.89859195537326L192.26666666666665,35.87063510341136L192.73333333333335,35.84283354056515L193.2,35.81518599036437L193.66666666666666,35.7876911902886L194.13333333333333,35.76034789157825L194.6,35.73315485904482L195.06666666666666,35.70611087089145L195.53333333333333,35.679214718528044L196,35.6524652063959L196.46666666666667,35.62586115179141L196.93333333333334,35.59940138469196L197.39999999999998,35.57308474759094L197.86666666666667,35.546910095325956L198.33333333333334,35.52087629491871L198.79999999999998,35.49498222540953L199.26666666666668,35.469226777702175L199.73333333333335,35.44360885440469L200.2,35.46142061689457L200.66666666666666,35.43593790399751L201.13333333333335,35.41059021579653L201.6,35.38537649453548L202.06666666666666,35.36029569347593L202.53333333333336,35.33534677675354L203,35.31052871923802L203.46666666666667,35.28584050639603L203.93333333333334,35.26128113415044L204.4,35.236849608751015L204.86666666666667,35.21254494663816L205.33333333333331,35.188366174313785L205.79999999999998,35.20651669336644L206.26666666666668,35.18245700167924L206.73333333333332,35.15852100580602L207.2,35.13470776616151L207.66666666666669,35.111016352653024L208.13333333333333,35.08744584455576L208.6,35.06399533040101L209.06666666666666,35.04066390785559L209.53333333333333,35.01745068361018L210,34.99435477326506L210.46666666666667,34.97137530122092L210.93333333333334,34.98977529551948L211.4,34.96690200256779L211.86666666666667,34.94414319399988L212.33333333333331,34.92149802374911L212.8,34.89896565406377L213.26666666666668,34.876545255404324L213.73333333333332,34.85423600634397L214.20000000000002,34.832037093469864L214.66666666666669,34.80994771128576L215.13333333333333,34.78796706211449L215.6,34.76609435600534L216.06666666666666,34.744328810638535L216.53333333333333,34.72266965123478L217,34.701116110465335L217.46666666666664,34.67966742836026L217.93333333333334,34.65832285222277L218.4,34.637081636540415L218.86666666666665,34.61594304290162L219.33333333333334,34.594906339909926L219.8,34.57397080310079L220.26666666666665,34.553135714860986L220.73333333333332,34.53240036434704L221.20000000000002,34.511764047403545L221.66666666666666,34.53068253066277L222.13333333333333,34.51012870840816L222.60000000000002,34.48967238495521L223.06666666666666,34.46931287837046L223.53333333333333,34.44904951306438L224,34.428881619716094L224.46666666666667,34.408808535202496L224.93333333333334,34.38882960252522L225.4,34.368944170742566L225.86666666666667,34.34915159489671L226.33333333333334,34.32945123594723L226.8,34.30984246070224L227.26666666666665,34.29032464175276L227.73333333333335,34.27089715740627L228.2,34.251559391621754L228.66666666666666,34.23231073394487L229.13333333333333,34.21315057944622L229.6,34.19407832865829L230.06666666666666,34.175093387512845L230.53333333333333,34.15619516728273L231,34.13738308452008L231.46666666666667,34.11865656099744L231.93333333333334,34.10001502365037L232.39999999999998,34.08145790451863L232.86666666666667,34.06298464069073L233.33333333333334,34.04459467424809L233.79999999999998,34.02628745220838L234.26666666666668,34.008062426471554L234.73333333333335,33.989919053767494L235.2,33.971856795601155L235.66666666666666,33.95387511820104L236.13333333333335,33.93597349246673L236.6,33.91815139391994L237.06666666666666,33.90040830265127L237.53333333333336,33.88274370327275L238,33.86515708486769L238.46666666666667,33.84764794094306L238.93333333333334,33.830215769381226L239.4,33.81286007239311L239.86666666666667,33.79558035647091L240.33333333333331,33.7783761323432L240.79999999999998,33.76124691492831L241.26666666666668,33.74419222329084L241.73333333333332,33.727211580597725L242.2,33.71030451407245L242.66666666666669,33.69347055495393L243.13333333333333,33.676709238453356L243.6,33.66002010371207L244.06666666666666,33.64340269376095L244.53333333333333,33.62685655547779L245,33.610381239548076L245.46666666666667,33.593976300426306L245.93333333333334,33.57764129629251L246.4,33.59733755006198L246.86666666666667,33.5810468077311L247.33333333333331,33.564825096496605L247.8,33.54867198657931L248.26666666666668,33.532587051761425L248.73333333333332,33.51656986934637L249.20000000000002,33.500620020122795L249.66666666666669,33.48473708833055L250.13333333333333,33.504422113078334L250.6,33.48857988052774L251.06666666666666,33.4728037217738L251.53333333333333,33.4570932321586L252,33.441448010320926L252.46666666666664,33.4258676581627L252.93333333333334,33.41035178081444L253.4,33.394899986604656L253.86666666666665,33.379511887027036L254.33333333333334,33.3641870967067L254.8,33.34892523337149L255.26666666666665,33.33372591781912L255.73333333333332,33.35342797102203L256.2,33.373049589192846" style="fill: none;" fill="none"></path></g></g></g></g><g opacity="0.2"><g><g><g><path stroke="rgb(255, 112, 67)" stroke-width="2px" d="M25.666666666666664,260.15386900535L26.133333333333333,82.15387553435107L26.6,41.07691001892093L27.066666666666666,27.384615384615415L27.53333333333333,82.15387553435107L28,68.46149928753194L28.46666666666667,41.07691001892093L28.933333333333334,27.384615384615415L29.4,27.384615384615415L29.866666666666667,27.384615384615415L30.333333333333336,54.769204653226424L30.8,27.384615384615415L31.266666666666666,41.07691001892093L31.73333333333333,27.384615384615415L32.2,27.384615384615415L32.666666666666664,27.384615384615415L33.13333333333333,27.384615384615415L33.6,27.384615384615415L34.06666666666667,27.384615384615415L34.53333333333333,27.384615384615415L35,27.384615384615415L35.46666666666667,27.384615384615415L35.93333333333333,27.384615384615415L36.4,27.384615384615415L36.86666666666666,27.384615384615415L37.333333333333336,27.384615384615415L37.800000000000004,41.07691001892093L38.266666666666666,27.384615384615415L38.733333333333334,41.07691001892093L39.2,27.384615384615415L39.666666666666664,41.07691001892093L40.13333333333333,27.384615384615415L40.599999999999994,41.07691001892093L41.06666666666667,27.384615384615415L41.53333333333334,41.07691001892093L42,27.384615384615415L42.46666666666667,27.384615384615415L42.93333333333333,27.384615384615415L43.4,27.384615384615415L43.86666666666667,27.384615384615415L44.33333333333333,27.384615384615415L44.800000000000004,41.07691001892093L45.266666666666666,27.384615384615415L45.733333333333334,27.384615384615415L46.2,27.384615384615415L46.666666666666664,27.384615384615415L47.13333333333333,27.384615384615415L47.6,41.07691001892093L48.06666666666666,27.384615384615415L48.53333333333333,27.384615384615415L49,27.384615384615415L49.46666666666667,27.384615384615415L49.93333333333334,27.384615384615415L50.4,27.384615384615415L50.86666666666667,27.384615384615415L51.33333333333333,27.384615384615415L51.8,27.384615384615415L52.266666666666666,41.07691001892093L52.733333333333334,27.384615384615415L53.2,27.384615384615415L53.66666666666667,41.07691001892093L54.13333333333333,27.384615384615415L54.6,27.384615384615415L55.06666666666666,27.384615384615415L55.53333333333333,27.384615384615415L56,27.384615384615415L56.46666666666667,27.384615384615415L56.93333333333334,27.384615384615415L57.4,27.384615384615415L57.86666666666667,27.384615384615415L58.333333333333336,27.384615384615415L58.8,27.384615384615415L59.266666666666666,27.384615384615415L59.733333333333334,27.384615384615415L60.199999999999996,27.384615384615415L60.66666666666667,27.384615384615415L61.13333333333333,27.384615384615415L61.6,27.384615384615415L62.06666666666667,41.07691001892093L62.53333333333333,41.07691001892093L63,27.384615384615415L63.46666666666666,27.384615384615415L63.93333333333333,41.07691001892093L64.4,27.384615384615415L64.86666666666666,27.384615384615415L65.33333333333333,27.384615384615415L65.8,27.384615384615415L66.26666666666667,27.384615384615415L66.73333333333333,27.384615384615415L67.2,27.384615384615415L67.66666666666667,27.384615384615415L68.13333333333334,27.384615384615415L68.6,27.384615384615415L69.06666666666666,27.384615384615415L69.53333333333333,41.07691001892093L70,27.384615384615415L70.46666666666667,27.384615384615415L70.93333333333334,27.384615384615415L71.4,27.384615384615415L71.86666666666666,27.384615384615415L72.33333333333334,27.384615384615415L72.8,27.384615384615415L73.26666666666667,27.384615384615415L73.73333333333332,27.384615384615415L74.2,27.384615384615415L74.66666666666667,27.384615384615415L75.13333333333333,27.384615384615415L75.60000000000001,27.384615384615415L76.06666666666666,27.384615384615415L76.53333333333333,27.384615384615415L77,27.384615384615415L77.46666666666667,41.07691001892093L77.93333333333334,27.384615384615415L78.4,27.384615384615415L78.86666666666667,27.384615384615415L79.33333333333333,27.384615384615415L79.8,27.384615384615415L80.26666666666667,27.384615384615415L80.73333333333333,27.384615384615415L81.19999999999999,27.384615384615415L81.66666666666667,27.384615384615415L82.13333333333334,27.384615384615415L82.6,27.384615384615415L83.06666666666668,27.384615384615415L83.53333333333333,27.384615384615415L84,27.384615384615415L84.46666666666667,27.384615384615415L84.93333333333334,27.384615384615415L85.39999999999999,27.384615384615415L85.86666666666666,54.769204653226424L86.33333333333334,27.384615384615415L86.8,27.384615384615415L87.26666666666667,27.384615384615415L87.73333333333333,27.384615384615415L88.2,41.07691001892093L88.66666666666666,27.384615384615415L89.13333333333334,27.384615384615415L89.60000000000001,27.384615384615415L90.06666666666666,27.384615384615415L90.53333333333333,27.384615384615415L91,27.384615384615415L91.46666666666667,27.384615384615415L91.93333333333332,27.384615384615415L92.4,41.07691001892093L92.86666666666666,27.384615384615415L93.33333333333333,27.384615384615415L93.80000000000001,27.384615384615415L94.26666666666667,27.384615384615415L94.73333333333333,27.384615384615415L95.2,27.384615384615415L95.66666666666667,27.384615384615415L96.13333333333333,27.384615384615415L96.6,27.384615384615415L97.06666666666666,27.384615384615415L97.53333333333333,27.384615384615415L98,27.384615384615415L98.46666666666667,27.384615384615415L98.93333333333334,41.07691001892093L99.39999999999999,27.384615384615415L99.86666666666667,27.384615384615415L100.33333333333333,27.384615384615415L100.8,27.384615384615415L101.26666666666668,27.384615384615415L101.73333333333333,27.384615384615415L102.2,27.384615384615415L102.66666666666666,27.384615384615415L103.13333333333334,41.07691001892093L103.6,27.384615384615415L104.06666666666666,27.384615384615415L104.53333333333333,27.384615384615415L105,27.384615384615415L105.46666666666667,27.384615384615415L105.93333333333334,27.384615384615415L106.4,27.384615384615415L106.86666666666666,27.384615384615415L107.33333333333334,27.384615384615415L107.8,27.384615384615415L108.26666666666667,27.384615384615415L108.73333333333332,27.384615384615415L109.2,27.384615384615415L109.66666666666667,27.384615384615415L110.13333333333333,27.384615384615415L110.60000000000001,27.384615384615415L111.06666666666666,27.384615384615415L111.53333333333333,27.384615384615415L112,27.384615384615415L112.46666666666667,27.384615384615415L112.93333333333334,27.384615384615415L113.4,27.384615384615415L113.86666666666667,27.384615384615415L114.33333333333333,27.384615384615415L114.8,27.384615384615415L115.26666666666667,27.384615384615415L115.73333333333333,27.384615384615415L116.19999999999999,27.384615384615415L116.66666666666667,27.384615384615415L117.13333333333334,27.384615384615415L117.6,27.384615384615415L118.06666666666668,27.384615384615415L118.53333333333333,41.07691001892093L119,27.384615384615415L119.46666666666667,27.384615384615415L119.93333333333334,27.384615384615415L120.39999999999999,27.384615384615415L120.86666666666666,27.384615384615415L121.33333333333334,27.384615384615415L121.8,27.384615384615415L122.26666666666667,27.384615384615415L122.73333333333333,27.384615384615415L123.2,27.384615384615415L123.66666666666666,27.384615384615415L124.13333333333334,41.07691001892093L124.60000000000001,27.384615384615415L125.06666666666666,27.384615384615415L125.53333333333333,27.384615384615415L126,27.384615384615415L126.46666666666667,27.384615384615415L126.93333333333332,27.384615384615415L127.4,27.384615384615415L127.86666666666666,27.384615384615415L128.33333333333331,27.384615384615415L128.8,27.384615384615415L129.26666666666668,27.384615384615415L129.73333333333332,27.384615384615415L130.20000000000002,41.07691001892093L130.66666666666666,27.384615384615415L131.13333333333333,27.384615384615415L131.6,27.384615384615415L132.06666666666666,27.384615384615415L132.53333333333333,27.384615384615415L133,27.384615384615415L133.46666666666667,27.384615384615415L133.93333333333334,27.384615384615415L134.4,27.384615384615415L134.86666666666667,27.384615384615415L135.33333333333334,27.384615384615415L135.79999999999998,27.384615384615415L136.26666666666668,27.384615384615415L136.73333333333335,27.384615384615415L137.2,27.384615384615415L137.66666666666666,27.384615384615415L138.13333333333333,27.384615384615415L138.6,41.07691001892093L139.06666666666666,27.384615384615415L139.53333333333333,27.384615384615415L140,27.384615384615415L140.46666666666667,27.384615384615415L140.93333333333334,41.07691001892093L141.4,27.384615384615415L141.86666666666667,27.384615384615415L142.33333333333331,27.384615384615415L142.8,27.384615384615415L143.26666666666668,27.384615384615415L143.73333333333332,27.384615384615415L144.20000000000002,27.384615384615415L144.66666666666669,27.384615384615415L145.13333333333333,41.07691001892093L145.6,27.384615384615415L146.06666666666666,27.384615384615415L146.53333333333333,27.384615384615415L147,27.384615384615415L147.46666666666664,27.384615384615415L147.93333333333334,41.07691001892093L148.4,27.384615384615415L148.86666666666665,27.384615384615415L149.33333333333334,41.07691001892093L149.8,27.384615384615415L150.26666666666665,27.384615384615415L150.73333333333332,27.384615384615415L151.20000000000002,27.384615384615415L151.66666666666666,27.384615384615415L152.13333333333333,27.384615384615415L152.60000000000002,27.384615384615415L153.06666666666666,27.384615384615415L153.53333333333333,27.384615384615415L154,27.384615384615415L154.46666666666667,27.384615384615415L154.93333333333334,27.384615384615415L155.4,27.384615384615415L155.86666666666667,27.384615384615415L156.33333333333334,27.384615384615415L156.8,27.384615384615415L157.26666666666665,27.384615384615415L157.73333333333335,27.384615384615415L158.2,27.384615384615415L158.66666666666666,27.384615384615415L159.13333333333333,27.384615384615415L159.6,27.384615384615415L160.06666666666666,27.384615384615415L160.53333333333333,27.384615384615415L161,27.384615384615415L161.46666666666667,27.384615384615415L161.93333333333334,27.384615384615415L162.39999999999998,41.07691001892093L162.86666666666667,27.384615384615415L163.33333333333334,27.384615384615415L163.79999999999998,27.384615384615415L164.26666666666668,27.384615384615415L164.73333333333335,27.384615384615415L165.2,27.384615384615415L165.66666666666666,27.384615384615415L166.13333333333335,27.384615384615415L166.6,27.384615384615415L167.06666666666666,27.384615384615415L167.53333333333336,27.384615384615415L168,41.07691001892093L168.46666666666667,41.07691001892093L168.93333333333334,27.384615384615415L169.4,27.384615384615415L169.86666666666667,27.384615384615415L170.33333333333331,27.384615384615415L170.79999999999998,27.384615384615415L171.26666666666668,27.384615384615415L171.73333333333332,27.384615384615415L172.2,27.384615384615415L172.66666666666669,27.384615384615415L173.13333333333333,27.384615384615415L173.6,27.384615384615415L174.06666666666666,27.384615384615415L174.53333333333333,27.384615384615415L175,27.384615384615415L175.46666666666667,27.384615384615415L175.93333333333334,27.384615384615415L176.4,27.384615384615415L176.86666666666667,27.384615384615415L177.33333333333331,27.384615384615415L177.8,27.384615384615415L178.26666666666668,27.384615384615415L178.73333333333332,27.384615384615415L179.20000000000002,27.384615384615415L179.66666666666669,27.384615384615415L180.13333333333333,27.384615384615415L180.6,27.384615384615415L181.06666666666666,27.384615384615415L181.53333333333333,27.384615384615415L182,27.384615384615415L182.46666666666664,27.384615384615415L182.93333333333334,27.384615384615415L183.4,27.384615384615415L183.86666666666665,27.384615384615415L184.33333333333334,27.384615384615415L184.8,27.384615384615415L185.26666666666665,27.384615384615415L185.73333333333332,27.384615384615415L186.20000000000002,27.384615384615415L186.66666666666666,27.384615384615415L187.13333333333333,27.384615384615415L187.60000000000002,27.384615384615415L188.06666666666666,27.384615384615415L188.53333333333333,27.384615384615415L189,27.384615384615415L189.46666666666667,27.384615384615415L189.93333333333334,27.384615384615415L190.4,41.07691001892093L190.86666666666667,27.384615384615415L191.33333333333334,27.384615384615415L191.8,27.384615384615415L192.26666666666665,27.384615384615415L192.73333333333335,27.384615384615415L193.2,27.384615384615415L193.66666666666666,27.384615384615415L194.13333333333333,27.384615384615415L194.6,27.384615384615415L195.06666666666666,27.384615384615415L195.53333333333333,27.384615384615415L196,27.384615384615415L196.46666666666667,27.384615384615415L196.93333333333334,27.384615384615415L197.39999999999998,27.384615384615415L197.86666666666667,27.384615384615415L198.33333333333334,27.384615384615415L198.79999999999998,27.384615384615415L199.26666666666668,27.384615384615415L199.73333333333335,27.384615384615415L200.2,41.07691001892093L200.66666666666666,27.384615384615415L201.13333333333335,27.384615384615415L201.6,27.384615384615415L202.06666666666666,27.384615384615415L202.53333333333336,27.384615384615415L203,27.384615384615415L203.46666666666667,27.384615384615415L203.93333333333334,27.384615384615415L204.4,27.384615384615415L204.86666666666667,27.384615384615415L205.33333333333331,27.384615384615415L205.79999999999998,41.07691001892093L206.26666666666668,27.384615384615415L206.73333333333332,27.384615384615415L207.2,27.384615384615415L207.66666666666669,27.384615384615415L208.13333333333333,27.384615384615415L208.6,27.384615384615415L209.06666666666666,27.384615384615415L209.53333333333333,27.384615384615415L210,27.384615384615415L210.46666666666667,27.384615384615415L210.93333333333334,41.07691001892093L211.4,27.384615384615415L211.86666666666667,27.384615384615415L212.33333333333331,27.384615384615415L212.8,27.384615384615415L213.26666666666668,27.384615384615415L213.73333333333332,27.384615384615415L214.20000000000002,27.384615384615415L214.66666666666669,27.384615384615415L215.13333333333333,27.384615384615415L215.6,27.384615384615415L216.06666666666666,27.384615384615415L216.53333333333333,27.384615384615415L217,27.384615384615415L217.46666666666664,27.384615384615415L217.93333333333334,27.384615384615415L218.4,27.384615384615415L218.86666666666665,27.384615384615415L219.33333333333334,27.384615384615415L219.8,27.384615384615415L220.26666666666665,27.384615384615415L220.73333333333332,27.384615384615415L221.20000000000002,27.384615384615415L221.66666666666666,41.07691001892093L222.13333333333333,27.384615384615415L222.60000000000002,27.384615384615415L223.06666666666666,27.384615384615415L223.53333333333333,27.384615384615415L224,27.384615384615415L224.46666666666667,27.384615384615415L224.93333333333334,27.384615384615415L225.4,27.384615384615415L225.86666666666667,27.384615384615415L226.33333333333334,27.384615384615415L226.8,27.384615384615415L227.26666666666665,27.384615384615415L227.73333333333335,27.384615384615415L228.2,27.384615384615415L228.66666666666666,27.384615384615415L229.13333333333333,27.384615384615415L229.6,27.384615384615415L230.06666666666666,27.384615384615415L230.53333333333333,27.384615384615415L231,27.384615384615415L231.46666666666667,27.384615384615415L231.93333333333334,27.384615384615415L232.39999999999998,27.384615384615415L232.86666666666667,27.384615384615415L233.33333333333334,27.384615384615415L233.79999999999998,27.384615384615415L234.26666666666668,27.384615384615415L234.73333333333335,27.384615384615415L235.2,27.384615384615415L235.66666666666666,27.384615384615415L236.13333333333335,27.384615384615415L236.6,27.384615384615415L237.06666666666666,27.384615384615415L237.53333333333336,27.384615384615415L238,27.384615384615415L238.46666666666667,27.384615384615415L238.93333333333334,27.384615384615415L239.4,27.384615384615415L239.86666666666667,27.384615384615415L240.33333333333331,27.384615384615415L240.79999999999998,27.384615384615415L241.26666666666668,27.384615384615415L241.73333333333332,27.384615384615415L242.2,27.384615384615415L242.66666666666669,27.384615384615415L243.13333333333333,27.384615384615415L243.6,27.384615384615415L244.06666666666666,27.384615384615415L244.53333333333333,27.384615384615415L245,27.384615384615415L245.46666666666667,27.384615384615415L245.93333333333334,27.384615384615415L246.4,41.07691001892093L246.86666666666667,27.384615384615415L247.33333333333331,27.384615384615415L247.8,27.384615384615415L248.26666666666668,27.384615384615415L248.73333333333332,27.384615384615415L249.20000000000002,27.384615384615415L249.66666666666669,27.384615384615415L250.13333333333333,41.07691001892093L250.6,27.384615384615415L251.06666666666666,27.384615384615415L251.53333333333333,27.384615384615415L252,27.384615384615415L252.46666666666664,27.384615384615415L252.93333333333334,27.384615384615415L253.4,27.384615384615415L253.86666666666665,27.384615384615415L254.33333333333334,27.384615384615415L254.8,27.384615384615415L255.26666666666665,27.384615384615415L255.73333333333332,41.07691001892093L256.2,41.07691001892093" style="fill: none;" fill="none"></path></g></g></g></g></g></g><g transform="translate(50, 178)" clip-path="url(#clip_1)"><clipPath id="clip_1"><rect width="280" height="22"></rect></clipPath><g><g><line x1="0" y1="0" x2="0" y2="5" style="visibility: inherit;" fill="rgb(0, 0, 0)" stroke="rgb(204, 204, 204)" stroke-width="1px"></line><line x1="23.333333333333332" y1="0" x2="23.333333333333332" y2="5" style="visibility: inherit;" fill="rgb(0, 0, 0)" stroke="rgb(204, 204, 204)" stroke-width="1px"></line><line x1="46.666666666666664" y1="0" x2="46.666666666666664" y2="5" style="visibility: inherit;" fill="rgb(0, 0, 0)" stroke="rgb(204, 204, 204)" stroke-width="1px"></line><line x1="70" y1="0" x2="70" y2="5" style="visibility: inherit;" fill="rgb(0, 0, 0)" stroke="rgb(204, 204, 204)" stroke-width="1px"></line><line x1="93.33333333333333" y1="0" x2="93.33333333333333" y2="5" style="visibility: inherit;" fill="rgb(0, 0, 0)" stroke="rgb(204, 204, 204)" stroke-width="1px"></line><line x1="116.66666666666667" y1="0" x2="116.66666666666667" y2="5" style="visibility: inherit;" fill="rgb(0, 0, 0)" stroke="rgb(204, 204, 204)" stroke-width="1px"></line><line x1="140" y1="0" x2="140" y2="5" style="visibility: inherit;" fill="rgb(0, 0, 0)" stroke="rgb(204, 204, 204)" stroke-width="1px"></line><line x1="163.33333333333334" y1="0" x2="163.33333333333334" y2="5" style="visibility: inherit;" fill="rgb(0, 0, 0)" stroke="rgb(204, 204, 204)" stroke-width="1px"></line><line x1="186.66666666666666" y1="0" x2="186.66666666666666" y2="5" style="visibility: inherit;" fill="rgb(0, 0, 0)" stroke="rgb(204, 204, 204)" stroke-width="1px"></line><line x1="210" y1="0" x2="210" y2="5" style="visibility: inherit;" fill="rgb(0, 0, 0)" stroke="rgb(204, 204, 204)" stroke-width="1px"></line><line x1="233.33333333333334" y1="0" x2="233.33333333333334" y2="5" style="visibility: inherit;" fill="rgb(0, 0, 0)" stroke="rgb(204, 204, 204)" stroke-width="1px"></line><line x1="256.66666666666663" y1="0" x2="256.66666666666663" y2="5" style="visibility: inherit;" fill="rgb(0, 0, 0)" stroke="rgb(204, 204, 204)" stroke-width="1px"></line><line x1="280" y1="0" x2="280" y2="5" style="visibility: inherit;" fill="rgb(0, 0, 0)" stroke="rgb(204, 204, 204)" stroke-width="1px"></line></g><g transform="translate(0, 8)"><text x="0" y="0" dx="0em" dy="0.95em" style="text-anchor: middle; visibility: hidden; font-family: &quot;Helvetica Neue&quot;, sans-serif; font-size: 12px; font-weight: 200;" fill="rgb(50, 49, 63)" stroke="none" stroke-width="1px">-50</text><text x="23.333333333333332" y="0" dx="0em" dy="0.95em" style="text-anchor: middle; visibility: inherit; font-family: &quot;Helvetica Neue&quot;, sans-serif; font-size: 12px; font-weight: 200;" fill="rgb(50, 49, 63)" stroke="none" stroke-width="1px">0</text><text x="46.666666666666664" y="0" dx="0em" dy="0.95em" style="text-anchor: middle; visibility: hidden; font-family: &quot;Helvetica Neue&quot;, sans-serif; font-size: 12px; font-weight: 200;" fill="rgb(50, 49, 63)" stroke="none" stroke-width="1px">50</text><text x="70" y="0" dx="0em" dy="0.95em" style="text-anchor: middle; visibility: inherit; font-family: &quot;Helvetica Neue&quot;, sans-serif; font-size: 12px; font-weight: 200;" fill="rgb(50, 49, 63)" stroke="none" stroke-width="1px">100</text><text x="93.33333333333333" y="0" dx="0em" dy="0.95em" style="text-anchor: middle; visibility: hidden; font-family: &quot;Helvetica Neue&quot;, sans-serif; font-size: 12px; font-weight: 200;" fill="rgb(50, 49, 63)" stroke="none" stroke-width="1px">150</text><text x="116.66666666666667" y="0" dx="0em" dy="0.95em" style="text-anchor: middle; visibility: inherit; font-family: &quot;Helvetica Neue&quot;, sans-serif; font-size: 12px; font-weight: 200;" fill="rgb(50, 49, 63)" stroke="none" stroke-width="1px">200</text><text x="140" y="0" dx="0em" dy="0.95em" style="text-anchor: middle; visibility: hidden; font-family: &quot;Helvetica Neue&quot;, sans-serif; font-size: 12px; font-weight: 200;" fill="rgb(50, 49, 63)" stroke="none" stroke-width="1px">250</text><text x="163.33333333333334" y="0" dx="0em" dy="0.95em" style="text-anchor: middle; visibility: inherit; font-family: &quot;Helvetica Neue&quot;, sans-serif; font-size: 12px; font-weight: 200;" fill="rgb(50, 49, 63)" stroke="none" stroke-width="1px">300</text><text x="186.66666666666666" y="0" dx="0em" dy="0.95em" style="text-anchor: middle; visibility: hidden; font-family: &quot;Helvetica Neue&quot;, sans-serif; font-size: 12px; font-weight: 200;" fill="rgb(50, 49, 63)" stroke="none" stroke-width="1px">350</text><text x="210" y="0" dx="0em" dy="0.95em" style="text-anchor: middle; visibility: inherit; font-family: &quot;Helvetica Neue&quot;, sans-serif; font-size: 12px; font-weight: 200;" fill="rgb(50, 49, 63)" stroke="none" stroke-width="1px">400</text><text x="233.33333333333334" y="0" dx="0em" dy="0.95em" style="text-anchor: middle; visibility: hidden; font-family: &quot;Helvetica Neue&quot;, sans-serif; font-size: 12px; font-weight: 200;" fill="rgb(50, 49, 63)" stroke="none" stroke-width="1px">450</text><text x="256.66666666666663" y="0" dx="0em" dy="0.95em" style="text-anchor: middle; visibility: inherit; font-family: &quot;Helvetica Neue&quot;, sans-serif; font-size: 12px; font-weight: 200;" fill="rgb(50, 49, 63)" stroke="none" stroke-width="1px">500</text><text x="280" y="0" dx="0em" dy="0.95em" style="text-anchor: middle; visibility: hidden; font-family: &quot;Helvetica Neue&quot;, sans-serif; font-size: 12px; font-weight: 200;" fill="rgb(50, 49, 63)" stroke="none" stroke-width="1px">550</text></g><line x1="0" y1="0" x2="280" y2="0" fill="rgb(0, 0, 0)" stroke="rgb(204, 204, 204)" stroke-width="1px"></line></g></g></g></g></svg>